<?xml version="1.0" encoding="UTF-8" standalone="no"?>
<!-- Created with Inkscape (http://www.inkscape.org/) -->

<svg
   xmlns:dc="http://purl.org/dc/elements/1.1/"
   xmlns:cc="http://creativecommons.org/ns#"
   xmlns:rdf="http://www.w3.org/1999/02/22-rdf-syntax-ns#"
   xmlns:svg="http://www.w3.org/2000/svg"
   xmlns="http://www.w3.org/2000/svg"
   xmlns:xlink="http://www.w3.org/1999/xlink"
   xmlns:sodipodi="http://sodipodi.sourceforge.net/DTD/sodipodi-0.dtd"
   xmlns:inkscape="http://www.inkscape.org/namespaces/inkscape"
   id="svg2424"
   height="100"
   width="500"
   version="1.0"
   inkscape:version="0.91 r13725"
   sodipodi:docname="browser_drag_drop.svg">
  <sodipodi:namedview
     pagecolor="#ffffff"
     bordercolor="#666666"
     borderopacity="1"
     objecttolerance="10"
     gridtolerance="10"
     guidetolerance="10"
     inkscape:pageopacity="0"
     inkscape:pageshadow="2"
     inkscape:window-width="1879"
     inkscape:window-height="1056"
     id="namedview58"
     showgrid="false"
     inkscape:zoom="1.3037281"
     inkscape:cx="174.22738"
     inkscape:cy="74.475896"
     inkscape:window-x="41"
     inkscape:window-y="24"
     inkscape:window-maximized="1"
     inkscape:current-layer="svg2424" />
  <metadata
     id="metadata52">
    <rdf:RDF>
      <cc:Work
         rdf:about="">
        <dc:format>image/svg+xml</dc:format>
        <dc:type
           rdf:resource="http://purl.org/dc/dcmitype/StillImage" />
        <dc:title></dc:title>
      </cc:Work>
    </rdf:RDF>
  </metadata>
  <defs
     id="defs2426">
    <linearGradient
       id="linearGradient5060">
      <stop
         id="stop5062"
         offset="0" />
      <stop
         id="stop5064"
         style="stop-opacity:0"
         offset="1" />
    </linearGradient>
    <filter
       id="filter3212"
       y="-0.16434"
       width="1.2969"
       x="-0.14846"
       height="1.3286999">
      <feGaussianBlur
         id="feGaussianBlur3214"
         stdDeviation="0.77391625" />
    </filter>
    <linearGradient
       id="linearGradient2506"
       y2="5.4565001"
       gradientUnits="userSpaceOnUse"
       x2="36.358002"
       gradientTransform="matrix(0.63713,0,0,0.64456,0.82968,0.74452)"
       y1="8.059"
       x1="32.891998">
      <stop
         id="stop8591"
         style="stop-color:#fefefe"
         offset="0" />
      <stop
         id="stop8593"
         style="stop-color:#cbcbcb"
         offset="1" />
    </linearGradient>
    <linearGradient
       id="linearGradient2510"
       y2="46.016998"
       gradientUnits="userSpaceOnUse"
       x2="24"
       gradientTransform="matrix(0.63636,0,0,0.62791,0.72725,0.93022)"
       y1="2"
       x1="24">
      <stop
         id="stop3213"
         style="stop-color:#fff"
         offset="0" />
      <stop
         id="stop3215"
         style="stop-color:#fff;stop-opacity:0"
         offset="1" />
    </linearGradient>
    <radialGradient
       id="radialGradient2513"
       gradientUnits="userSpaceOnUse"
       cy="112.3"
       cx="102"
       gradientTransform="matrix(0.23404,0,0,-0.2543,1.0213,32.289)"
       r="139.56">
      <stop
         id="stop41"
         style="stop-color:#b7b8b9"
         offset="0" />
      <stop
         id="stop47"
         style="stop-color:#ececec"
         offset=".18851" />
      <stop
         id="stop49"
         style="stop-color:#fafafa;stop-opacity:0"
         offset=".25718" />
      <stop
         id="stop51"
         style="stop-color:#fff;stop-opacity:0"
         offset=".30111" />
      <stop
         id="stop53"
         style="stop-color:#fafafa;stop-opacity:0"
         offset=".53130" />
      <stop
         id="stop55"
         style="stop-color:#ebecec;stop-opacity:0"
         offset=".84490" />
      <stop
         id="stop57"
         style="stop-color:#e1e2e3;stop-opacity:0"
         offset="1" />
    </radialGradient>
    <linearGradient
       id="linearGradient2516"
       y2="47.013"
       gradientUnits="userSpaceOnUse"
       x2="25.132"
       gradientTransform="matrix(0.65714,0,0,0.63012,0.22855,-0.089648)"
       y1="0.98521"
       x1="25.132">
      <stop
         id="stop3602"
         style="stop-color:#f4f4f4"
         offset="0" />
      <stop
         id="stop3604"
         style="stop-color:#dbdbdb"
         offset="1" />
    </linearGradient>
    <linearGradient
       id="linearGradient2518"
       y2="2.9061999"
       gradientUnits="userSpaceOnUse"
       x2="-51.785999"
       gradientTransform="matrix(0.53064,0,0,0.5897,39.27,-0.79191)"
       y1="50.785999"
       x1="-51.785999">
      <stop
         id="stop3106"
         style="stop-color:#aaa"
         offset="0" />
      <stop
         id="stop3108"
         style="stop-color:#c8c8c8"
         offset="1" />
    </linearGradient>
    <radialGradient
       id="radialGradient2521"
       xlink:href="#linearGradient5060"
       gradientUnits="userSpaceOnUse"
       cy="486.64999"
       cx="605.71002"
       gradientTransform="matrix(0.015663,0,0,0.0082353,17.61,26.981)"
       r="117.14" />
    <radialGradient
       id="radialGradient2524"
       xlink:href="#linearGradient5060"
       gradientUnits="userSpaceOnUse"
       cy="486.64999"
       cx="605.71002"
       gradientTransform="matrix(-0.015663,0,0,0.0082353,14.39,26.981)"
       r="117.14" />
    <linearGradient
       id="linearGradient2527"
       y2="609.51001"
       gradientUnits="userSpaceOnUse"
       x2="302.85999"
       gradientTransform="matrix(0.045769,0,0,0.0082353,-0.54232,26.981)"
       y1="366.64999"
       x1="302.85999">
      <stop
         id="stop5050"
         style="stop-opacity:0"
         offset="0" />
      <stop
         id="stop5056"
         offset=".5" />
      <stop
         id="stop5052"
         style="stop-opacity:0"
         offset="1" />
    </linearGradient>
    <linearGradient
       id="linearGradient3059"
       y2="39.268002"
       gradientUnits="userSpaceOnUse"
       x2="24.139"
       gradientTransform="matrix(0.37573,0,0,0.37346,16.248,19.686)"
       y1="7.0479002"
       x1="24.139">
      <stop
         id="stop3945"
         style="stop-color:#fff"
         offset="0" />
      <stop
         id="stop3947"
         style="stop-color:#fff;stop-opacity:0"
         offset="1" />
    </linearGradient>
    <radialGradient
       id="radialGradient3137"
       gradientUnits="userSpaceOnUse"
       cx="69.447998"
       cy="51.695"
       r="31"
       gradientTransform="matrix(0,0.4649,-0.50576,0,49.574,-9.296)">
      <stop
         id="stop3244-5"
         style="stop-color:#eef87e"
         offset="0" />
      <stop
         id="stop3246-9"
         style="stop-color:#cde34f"
         offset=".26238" />
      <stop
         id="stop3248-7"
         style="stop-color:#93b723"
         offset=".66094" />
      <stop
         id="stop3250-8"
         style="stop-color:#5a7e0d"
         offset="1" />
    </radialGradient>
    <linearGradient
       id="linearGradient3139"
       y2="51.243999"
       gradientUnits="userSpaceOnUse"
       y1="124.76"
       gradientTransform="matrix(0.19311,0,0,0.19469,8.006,10.8601)"
       x2="72.421997"
       x1="72.421997">
      <stop
         id="stop2492-3"
         style="stop-color:#365f0e"
         offset="0" />
      <stop
         id="stop2494-8"
         style="stop-color:#84a718"
         offset="1" />
    </linearGradient>
  </defs>
  <g
     id="g4212"
     transform="matrix(3.1212394,0,0,2.8823607,2.7108644,-4.3058717)">
    <g
       transform="translate(0,3)"
       id="layer1">
      <rect
         x="4.9499998"
         y="30"
         width="22.1"
         height="2"
         style="opacity:0.15;fill:url(#linearGradient2527)"
         id="rect2879" />
      <path
         inkscape:connector-curvature="0"
         d="m 4.95,30 0,2 C 4.1434,32.004 3,31.552 3,31 3,30.448 3.9001,30 4.95,30 Z"
         style="opacity:0.15;fill:url(#radialGradient2524)"
         id="path2881" />
      <path
         inkscape:connector-curvature="0"
         d="m 27.05,30 0,2 C 27.857,32.004 29,31.552 29,31 29,30.448 28.1,30 27.05,30 Z"
         style="opacity:0.15;fill:url(#radialGradient2521)"
         id="path2883" />
      <path
         inkscape:connector-curvature="0"
         d="m 4.5,1.5 15.811,0 c 0.925,0.3128 5.892,3.8764 7.189,6.3438 l 0,22.656 -23,0 0,-29 z"
         style="fill:url(#linearGradient2516);stroke:url(#linearGradient2518);stroke-width:0.99992001;stroke-linejoin:round"
         id="path4160" />
      <path
         inkscape:connector-curvature="0"
         d="M 5.234,30 C 5.1051,30 5,29.886 5,29.746 L 5,2.282 C 5,2.1413 5.1051,2.0274 5.234,2.0274 10.076,2.0977 15.442,1.9222 20.278,2.0449 L 26.931,7.8144 27,29.7464 c 0,0.14 -0.105,0.254 -0.234,0.254 l -21.532,0 z"
         style="fill:url(#radialGradient2513)"
         id="path4191" />
      <path
         inkscape:connector-curvature="0"
         d="m 26.5,8.139 0,21.361 -21,0 0,-27 14.551,0"
         style="opacity:0.6;fill:none;stroke:url(#linearGradient2510)"
         id="path2435" />
      <path
         inkscape:connector-curvature="0"
         transform="matrix(0.6386,0,0,0.61936,0.72508,1.4294)"
         d="m 28.617,0.92126 c 4.283,0 2.154,8.4831 2.154,8.4831 0,0 10.357,-1.8023 10.357,2.8186 0,-2.6095 -11.302,-10.728 -12.511,-11.302 z"
         style="opacity:0.4;fill-rule:evenodd;filter:url(#filter3212)"
         id="path12038" />
      <path
         inkscape:connector-curvature="0"
         d="m 19,2 c 2.035,0 1.492,4.7455 1.492,4.7455 0,0 6.497,-0.6076 6.497,2.2545 0,-0.6974 0.055,-1.1968 -0.085,-1.4144 C 25.896,6.0222 21.543,2.514 19.971,2.0542 19.853,2.0198 19.592,2 19,2 Z"
         style="fill:url(#linearGradient2506);fill-rule:evenodd"
         id="path4474" />
    </g>
    <path
       inkscape:connector-curvature="0"
       d="m 22.5,25.5 0,-4.021 5,0 0,4.021 4.0073,0 0,5 -4.0073,0 0,4.0073 -5,0 0,-4.0073 -4.0073,0 0,-5 4.0073,0 z"
       style="color:#000000;fill:url(#radialGradient3137);stroke:url(#linearGradient3139);stroke-width:0.98543;stroke-linecap:round;stroke-linejoin:round"
       id="path2262" />
    <path
       inkscape:connector-curvature="0"
       d="m 23.5,26.5 0,-4 3,0 0,4 4.02,0 0,3 -4.02,0 0,4 -3,0 0,-4 -4,0 0,-3 4,0 z"
       style="opacity:0.4;fill:none;stroke:url(#linearGradient3059)"
       id="path2272" />
  </g>
  <g
     transform="matrix(4.2890268,0,0,4.1244005,1.708125,-8.8321912)"
     style="font-style:normal;font-variant:normal;font-weight:normal;font-stretch:normal;font-size:18px;line-height:125%;font-family:Arial;-inkscape-font-specification:Arial;letter-spacing:0px;word-spacing:0px;fill:#000000;fill-opacity:1;stroke:none;stroke-width:1px;stroke-linecap:butt;stroke-linejoin:miter;stroke-opacity:1"
     id="flowRoot4186">
    <path
       d="m 31.501953,3.63178 2.641602,0 q 0.893554,0 1.362304,0.1367187 0.629883,0.1855469 1.079102,0.6591797 0.449219,0.4736328 0.683594,1.1621094 0.234375,0.6835937 0.234375,1.6894531 0,0.8837891 -0.219727,1.5234375 -0.268555,0.78125 -0.766601,1.2646486 -0.375977,0.366211 -1.015625,0.571289 -0.478516,0.151367 -1.279297,0.151367 l -2.719727,0 0,-7.158203 z m 1.445313,1.2109375 0,4.7412109 1.079101,0 q 0.605469,0 0.874024,-0.068359 0.351562,-0.087891 0.581054,-0.2978515 0.234375,-0.209961 0.38086,-0.6884766 0.146484,-0.4833984 0.146484,-1.3134766 0,-0.8300781 -0.146484,-1.274414 Q 35.71582,5.4970143 35.452148,5.2479909 35.188477,4.9989675 34.783203,4.9110768 34.480469,4.8427175 33.59668,4.8427175 l -0.649414,0 z"
       style="font-weight:bold;font-size:10px;fill:#767676;fill-opacity:1"
       id="path4197"
       inkscape:connector-curvature="0" />
    <path
       d="m 40.037109,10.789983 -1.37207,0 0,-5.1855468 1.274414,0 0,0.7373047 q 0.327149,-0.5224609 0.585938,-0.6884766 0.263671,-0.1660156 0.595703,-0.1660156 0.46875,0 0.90332,0.2587891 l -0.424805,1.196289 Q 41.25293,6.7177175 40.955078,6.7177175 q -0.288086,0 -0.488281,0.1611328 -0.200195,0.15625 -0.317383,0.571289 -0.112305,0.4150391 -0.112305,1.7382813 l 0,1.6015624 z"
       style="font-weight:bold;font-size:10px;fill:#767676;fill-opacity:1"
       id="path4199"
       inkscape:connector-curvature="0" />
    <path
       d="M 43.635742,7.1864675 42.390625,6.9618581 q 0.209961,-0.7519531 0.722656,-1.1132813 0.512696,-0.3613281 1.523438,-0.3613281 0.917968,0 1.367187,0.2197266 0.449219,0.2148437 0.629883,0.5517578 0.185547,0.3320312 0.185547,1.2255859 l -0.01465,1.6015625 q 0,0.6835938 0.06348,1.0107425 0.06836,0.322265 0.249023,0.693359 l -1.357421,0 q -0.05371,-0.136719 -0.131836,-0.405273 -0.03418,-0.122071 -0.04883,-0.161133 -0.351563,0.341797 -0.751954,0.512695 -0.40039,0.170899 -0.854492,0.170899 -0.800781,0 -1.264648,-0.434571 -0.458985,-0.43457 -0.458985,-1.0986325 0,-0.4394532 0.209961,-0.78125 0.209961,-0.3466797 0.585938,-0.5273438 0.380859,-0.1855469 1.09375,-0.3222656 Q 45.100586,7.562444 45.47168,7.406194 l 0,-0.1367187 q 0,-0.3955078 -0.195313,-0.5615235 -0.195312,-0.1708984 -0.737305,-0.1708984 -0.36621,0 -0.571289,0.1464844 -0.205078,0.1416015 -0.332031,0.5029297 z m 1.835938,1.1132812 q -0.263672,0.087891 -0.834961,0.2099609 -0.571289,0.1220704 -0.747071,0.2392579 -0.268554,0.1904296 -0.268554,0.4833984 0,0.2880859 0.214843,0.4980469 0.214844,0.2099609 0.546875,0.2099609 0.371094,0 0.708008,-0.2441406 0.249024,-0.1855469 0.327149,-0.4541016 0.05371,-0.1757812 0.05371,-0.6689453 l 0,-0.2734375 z"
       style="font-weight:bold;font-size:10px;fill:#767676;fill-opacity:1"
       id="path4201"
       inkscape:connector-curvature="0" />
    <path
       d="m 48.049805,11.13178 1.567382,0.19043 q 0.03906,0.273437 0.180665,0.375976 0.195312,0.146485 0.615234,0.146485 0.537109,0 0.805664,-0.161133 0.180664,-0.107422 0.273437,-0.34668 0.06348,-0.170898 0.06348,-0.629883 l 0,-0.7568357 q -0.615234,0.8398437 -1.552734,0.8398437 -1.044922,0 -1.655274,-0.883789 -0.478515,-0.6982422 -0.478515,-1.7382812 0,-1.303711 0.625,-1.9921875 0.629882,-0.6884766 1.5625,-0.6884766 0.961914,0 1.586914,0.8447266 l 0,-0.7275391 1.284179,0 0,4.6533208 q 0,0.917968 -0.151367,1.37207 -0.151367,0.454101 -0.424805,0.71289 -0.273437,0.25879 -0.732421,0.405274 -0.454102,0.146484 -1.152344,0.146484 -1.31836,0 -1.870117,-0.454101 -0.551758,-0.449219 -0.551758,-1.142578 0,-0.06836 0.0049,-0.166016 z m 1.225586,-3.0419922 q 0,0.8251953 0.317382,1.2109375 0.322266,0.3808593 0.791016,0.3808593 0.50293,0 0.849609,-0.390625 0.34668,-0.3955078 0.34668,-1.1669921 0,-0.8056641 -0.332031,-1.1962891 -0.332031,-0.390625 -0.839844,-0.390625 -0.493164,0 -0.81543,0.3857422 -0.317382,0.3808594 -0.317382,1.1669922 z"
       style="font-weight:bold;font-size:10px;fill:#767676;fill-opacity:1"
       id="path4203"
       inkscape:connector-curvature="0" />
    <path
       d="M 63.40625,9.9159596 62.576172,10.97553 q -0.610352,-0.297852 -1.171875,-0.820313 -0.43457,0.390625 -0.922852,0.576172 -0.488281,0.185547 -1.162109,0.185547 -1.337891,0 -2.011719,-0.751953 -0.522461,-0.5810546 -0.522461,-1.3378905 0,-0.6884766 0.410156,-1.2353516 Q 57.605469,7.0399831 58.420898,6.6347096 58.054687,6.2001393 57.869141,5.8095143 57.683594,5.4140065 57.683594,5.062444 q 0,-0.649414 0.517578,-1.0986328 0.522461,-0.4541016 1.484375,-0.4541016 0.927734,0 1.450195,0.4736329 0.522461,0.4736328 0.522461,1.1572265 0,0.4345703 -0.258789,0.8251953 -0.258789,0.390625 -1.044922,0.8837891 L 61.350586,8.16303 q 0.175781,-0.3125 0.302734,-0.8154297 l 1.240235,0.2832031 q -0.185547,0.6591797 -0.322266,0.9667969 -0.136719,0.3027343 -0.292969,0.5078125 0.229492,0.2148437 0.590821,0.4736328 0.366211,0.2539062 0.537109,0.336914 z M 59.670898,6.0243581 60.041992,5.741155 q 0.410156,-0.3173829 0.410156,-0.6298829 0,-0.2636718 -0.200195,-0.4492187 -0.195312,-0.1855469 -0.532226,-0.1855469 -0.327149,0 -0.512696,0.1660156 -0.185547,0.1611329 -0.185547,0.3759766 0,0.2539063 0.3125,0.6152344 l 0.336914,0.390625 z m -0.537109,1.4892578 q -0.473633,0.2392578 -0.708008,0.5761719 -0.234375,0.336914 -0.234375,0.6884765 0,0.444336 0.288086,0.7275391 0.292969,0.2783203 0.78125,0.2783203 0.322266,0 0.620117,-0.1269531 0.297852,-0.1269531 0.649414,-0.4199219 L 59.133789,7.5136159 Z"
       style="font-weight:bold;font-size:10px;fill:#767676;fill-opacity:1"
       id="path4205"
       inkscape:connector-curvature="0" />
    <path
       d="m 67.068359,3.63178 2.641602,0 q 0.893555,0 1.362305,0.1367187 0.629882,0.1855469 1.079101,0.6591797 0.449219,0.4736328 0.683594,1.1621094 0.234375,0.6835937 0.234375,1.6894531 0,0.8837891 -0.219727,1.5234375 -0.268554,0.78125 -0.766601,1.2646486 -0.375977,0.366211 -1.015625,0.571289 -0.478516,0.151367 -1.279297,0.151367 l -2.719727,0 0,-7.158203 z m 1.445313,1.2109375 0,4.7412109 1.079101,0 q 0.605469,0 0.874024,-0.068359 0.351562,-0.087891 0.581055,-0.2978515 0.234375,-0.209961 0.380859,-0.6884766 0.146484,-0.4833984 0.146484,-1.3134766 0,-0.8300781 -0.146484,-1.274414 Q 71.282227,5.4970143 71.018555,5.2479909 70.754883,4.9989675 70.349609,4.9110768 70.046875,4.8427175 69.163086,4.8427175 l -0.649414,0 z"
       style="font-weight:bold;font-size:10px;fill:#767676;fill-opacity:1"
       id="path4207"
       inkscape:connector-curvature="0" />
    <path
       d="m 75.603516,10.789983 -1.372071,0 0,-5.1855468 1.274414,0 0,0.7373047 Q 75.833008,5.81928 76.091797,5.6532643 76.355469,5.4872487 76.6875,5.4872487 q 0.46875,0 0.90332,0.2587891 l -0.424804,1.196289 q -0.34668,-0.2246093 -0.644532,-0.2246093 -0.288086,0 -0.488281,0.1611328 -0.200195,0.15625 -0.317383,0.571289 -0.112304,0.4150391 -0.112304,1.7382813 l 0,1.6015624 z"
       style="font-weight:bold;font-size:10px;fill:#767676;fill-opacity:1"
       id="path4209"
       inkscape:connector-curvature="0" />
    <path
       d="m 77.859375,8.1239675 q 0,-0.6835938 0.336914,-1.3232422 0.336914,-0.6396485 0.952148,-0.9765625 0.620118,-0.3369141 1.381836,-0.3369141 1.176758,0 1.928711,0.7666016 0.751953,0.7617187 0.751953,1.9287109 0,1.1767578 -0.761718,1.9531248 -0.756836,0.771485 -1.90918,0.771485 -0.712891,0 -1.362305,-0.322266 -0.644531,-0.322266 -0.981445,-0.9423829 -0.336914,-0.625 -0.336914,-1.5185546 z m 1.40625,0.073242 q 0,0.7714844 0.366211,1.1816407 0.366211,0.4101562 0.90332,0.4101562 0.53711,0 0.898438,-0.4101562 0.366211,-0.4101563 0.366211,-1.1914063 0,-0.7617187 -0.366211,-1.171875 -0.361328,-0.4101562 -0.898438,-0.4101562 -0.537109,0 -0.90332,0.4101562 -0.366211,0.4101563 -0.366211,1.1816406 z"
       style="font-weight:bold;font-size:10px;fill:#767676;fill-opacity:1"
       id="path4211"
       inkscape:connector-curvature="0" />
    <path
       d="m 84.250977,5.6044362 1.279296,0 0,0.7617188 q 0.249024,-0.390625 0.673829,-0.6347657 0.424804,-0.2441406 0.942382,-0.2441406 0.903321,0 1.533203,0.7080078 0.629883,0.7080078 0.629883,1.9726563 0,1.2988281 -0.634765,2.0214842 -0.634766,0.717774 -1.538086,0.717774 -0.429688,0 -0.78125,-0.170899 -0.34668,-0.170898 -0.732422,-0.585937 l 0,2.612304 -1.37207,0 0,-7.1582028 z m 1.357421,2.5048828 q 0,0.8740235 0.34668,1.2939453 0.34668,0.4150391 0.844727,0.4150391 0.478515,0 0.795898,-0.3808594 0.317383,-0.3857422 0.317383,-1.2597656 0,-0.8154297 -0.327149,-1.2109375 -0.327148,-0.3955078 -0.810546,-0.3955078 -0.50293,0 -0.834961,0.390625 -0.332032,0.3857422 -0.332032,1.1474609 z"
       style="font-weight:bold;font-size:10px;fill:#767676;fill-opacity:1"
       id="path4213"
       inkscape:connector-curvature="0" />
    <path
       d="m 94.543945,3.63178 0,2.6318359 q 0.664063,-0.7763672 1.586914,-0.7763672 0.473633,0 0.854493,0.1757813 0.380859,0.1757812 0.571289,0.4492187 0.195312,0.2734375 0.263671,0.6054688 0.07324,0.3320312 0.07324,1.0302734 l 0,3.0419921 -1.372071,0 0,-2.7392577 q 0,-0.8154297 -0.07813,-1.0351563 -0.07813,-0.2197265 -0.27832,-0.3466797 -0.195312,-0.1318359 -0.493164,-0.1318359 -0.341797,0 -0.610352,0.1660156 -0.268554,0.1660156 -0.395507,0.5029297 -0.122071,0.3320313 -0.122071,0.9863281 l 0,2.5976562 -1.37207,0 0,-7.158203 1.37207,0 z"
       style="font-weight:bold;font-size:10px;fill:#767676;fill-opacity:1"
       id="path4215"
       inkscape:connector-curvature="0" />
    <path
       d="m 102.29297,9.1395925 1.36719,0.2294921 q -0.26368,0.7519534 -0.83496,1.1474614 -0.56641,0.390625 -1.4209,0.390625 -1.35254,0 -2.001956,-0.883789 -0.512696,-0.7080083 -0.512696,-1.7871099 0,-1.2890625 0.673829,-2.0166015 0.673823,-0.7324219 1.704103,-0.7324219 1.15722,0 1.82617,0.7666016 0.66895,0.7617187 0.63965,2.3388672 l -3.4375,0 q 0.0147,0.6103515 0.33203,0.9521484 0.31738,0.3369141 0.79102,0.3369141 0.32226,0 0.54199,-0.1757813 0.21972,-0.1757812 0.33203,-0.5664062 z m 0.0781,-1.3867188 q -0.0146,-0.5957031 -0.30761,-0.9033203 -0.29297,-0.3125 -0.71289,-0.3125 -0.44922,0 -0.74219,0.3271484 -0.29297,0.3271485 -0.28809,0.8886719 l 2.05078,0 z"
       style="font-weight:bold;font-size:10px;fill:#767676;fill-opacity:1"
       id="path4217"
       inkscape:connector-curvature="0" />
    <path
       d="m 106.16992,10.789983 -1.37207,0 0,-5.1855468 1.27442,0 0,0.7373047 q 0.32714,-0.5224609 0.58593,-0.6884766 0.26368,-0.1660156 0.59571,-0.1660156 0.46875,0 0.90332,0.2587891 l -0.42481,1.196289 q -0.34668,-0.2246093 -0.64453,-0.2246093 -0.28809,0 -0.48828,0.1611328 -0.2002,0.15625 -0.31738,0.571289 -0.11231,0.4150391 -0.11231,1.7382813 l 0,1.6015624 z"
       style="font-weight:bold;font-size:10px;fill:#767676;fill-opacity:1"
       id="path4219"
       inkscape:connector-curvature="0" />
    <path
       d="m 111.74609,9.1395925 1.36719,0.2294921 q -0.26367,0.7519534 -0.83496,1.1474614 -0.56641,0.390625 -1.4209,0.390625 -1.35254,0 -2.00195,-0.883789 -0.5127,-0.7080083 -0.5127,-1.7871099 0,-1.2890625 0.67383,-2.0166015 0.67383,-0.7324219 1.7041,-0.7324219 1.15723,0 1.82618,0.7666016 0.66894,0.7617187 0.63964,2.3388672 l -3.4375,0 q 0.0147,0.6103515 0.33203,0.9521484 0.31739,0.3369141 0.79102,0.3369141 0.32227,0 0.54199,-0.1757813 0.21973,-0.1757812 0.33203,-0.5664062 z m 0.0781,-1.3867188 q -0.0147,-0.5957031 -0.30762,-0.9033203 -0.29297,-0.3125 -0.71289,-0.3125 -0.44922,0 -0.74219,0.3271484 -0.29297,0.3271485 -0.28808,0.8886719 l 2.05078,0 z"
       style="font-weight:bold;font-size:10px;fill:#767676;fill-opacity:1"
       id="path4221"
       inkscape:connector-curvature="0" />
    <path
       d="m 33.875,18.104436 0,1.09375 -0.9375,0 0,2.089844 q 0,0.634766 0.02441,0.742187 0.0293,0.10254 0.12207,0.170899 0.09766,0.06836 0.234375,0.06836 0.19043,0 0.551758,-0.131836 l 0.117188,1.064453 q -0.478516,0.205079 -1.083985,0.205079 -0.371093,0 -0.668945,-0.122071 -0.297852,-0.126953 -0.439453,-0.322265 -0.136719,-0.200196 -0.19043,-0.53711 -0.04395,-0.239258 -0.04395,-0.966797 l 0,-2.260742 -0.629883,0 0,-1.09375 0.629883,0 0,-1.030273 1.376953,-0.800781 0,1.831054 0.9375,0 z"
       style="font-weight:bold;font-size:10px;fill:#767676;fill-opacity:1"
       id="path4223"
       inkscape:connector-curvature="0" />
    <path
       d="m 34.519531,20.623967 q 0,-0.683593 0.336914,-1.323242 0.336914,-0.639648 0.952149,-0.976562 0.620117,-0.336914 1.381836,-0.336914 1.176757,0 1.928711,0.766601 0.751953,0.761719 0.751953,1.928711 0,1.176758 -0.761719,1.953125 -0.756836,0.771485 -1.90918,0.771485 -0.71289,0 -1.362304,-0.322266 -0.644532,-0.322266 -0.981446,-0.942383 -0.336914,-0.625 -0.336914,-1.518555 z m 1.40625,0.07324 q 0,0.771484 0.366211,1.18164 0.366211,0.410157 0.90332,0.410157 0.53711,0 0.898438,-0.410157 0.366211,-0.410156 0.366211,-1.191406 0,-0.761719 -0.366211,-1.171875 -0.361328,-0.410156 -0.898438,-0.410156 -0.537109,0 -0.90332,0.410156 -0.366211,0.410156 -0.366211,1.181641 z"
       style="font-weight:bold;font-size:10px;fill:#767676;fill-opacity:1"
       id="path4225"
       inkscape:connector-curvature="0" />
    <path
       d="m 43.40625,20.623967 q 0,-0.683593 0.336914,-1.323242 0.336914,-0.639648 0.952148,-0.976562 0.620118,-0.336914 1.381836,-0.336914 1.176758,0 1.928711,0.766601 0.751953,0.761719 0.751953,1.928711 0,1.176758 -0.761718,1.953125 -0.756836,0.771485 -1.90918,0.771485 -0.712891,0 -1.362305,-0.322266 -0.644531,-0.322266 -0.981445,-0.942383 -0.336914,-0.625 -0.336914,-1.518555 z m 1.40625,0.07324 q 0,0.771484 0.366211,1.18164 0.366211,0.410157 0.90332,0.410157 0.53711,0 0.898438,-0.410157 0.366211,-0.410156 0.366211,-1.191406 0,-0.761719 -0.366211,-1.171875 -0.361328,-0.410156 -0.898438,-0.410156 -0.537109,0 -0.90332,0.410156 Q 44.8125,19.925725 44.8125,20.69721 Z"
       style="font-weight:bold;font-size:10px;fill:#767676;fill-opacity:1"
       id="path4227"
       inkscape:connector-curvature="0" />
    <path
       d="m 49.797852,18.104436 1.279296,0 0,0.761719 q 0.249024,-0.390625 0.673829,-0.634766 0.424804,-0.24414 0.942382,-0.24414 0.903321,0 1.533203,0.708008 0.629883,0.708007 0.629883,1.972656 0,1.298828 -0.634765,2.021484 -0.634766,0.717774 -1.538086,0.717774 -0.429688,0 -0.78125,-0.170899 -0.34668,-0.170898 -0.732422,-0.585937 l 0,2.612304 -1.37207,0 0,-7.158203 z m 1.357421,2.504883 q 0,0.874023 0.34668,1.293945 0.34668,0.415039 0.844727,0.415039 0.478515,0 0.795898,-0.380859 0.317383,-0.385742 0.317383,-1.259766 0,-0.815429 -0.327149,-1.210937 -0.327148,-0.395508 -0.810546,-0.395508 -0.50293,0 -0.834961,0.390625 -0.332032,0.385742 -0.332032,1.147461 z"
       style="font-weight:bold;font-size:10px;fill:#767676;fill-opacity:1"
       id="path4229"
       inkscape:connector-curvature="0" />
    <path
       d="m 58.953125,21.639592 1.367187,0.229493 q -0.263671,0.751953 -0.83496,1.147461 -0.566407,0.390625 -1.420899,0.390625 -1.352539,0 -2.001953,-0.883789 -0.512695,-0.708008 -0.512695,-1.78711 0,-1.289062 0.673828,-2.016601 0.673828,-0.732422 1.704101,-0.732422 1.157227,0 1.826172,0.766601 0.668946,0.761719 0.639649,2.338867 l -3.4375,0 q 0.01465,0.610352 0.332031,0.952149 0.317383,0.336914 0.791016,0.336914 0.322265,0 0.541992,-0.175781 0.219726,-0.175782 0.332031,-0.566407 z m 0.07813,-1.386718 q -0.01465,-0.595703 -0.307617,-0.903321 -0.292969,-0.3125 -0.712891,-0.3125 -0.449219,0 -0.742187,0.327149 -0.292969,0.327148 -0.288086,0.888672 l 2.050781,0 z"
       style="font-weight:bold;font-size:10px;fill:#767676;fill-opacity:1"
       id="path4231"
       inkscape:connector-curvature="0" />
    <path
       d="m 66.233398,23.289983 -1.37207,0 0,-2.646484 q 0,-0.839844 -0.08789,-1.083985 -0.08789,-0.249023 -0.288085,-0.385742 -0.195313,-0.136719 -0.473633,-0.136719 -0.356446,0 -0.639649,0.195313 -0.283203,0.195312 -0.390625,0.517578 -0.102539,0.322266 -0.102539,1.191406 l 0,2.348633 -1.37207,0 0,-5.185547 1.274414,0 0,0.761719 q 0.678711,-0.878906 1.708984,-0.878906 0.454102,0 0.830078,0.166015 0.375977,0.161133 0.566407,0.415039 0.195312,0.253907 0.268554,0.576172 0.07813,0.322266 0.07813,0.922852 l 0,3.222656 z"
       style="font-weight:bold;font-size:10px;fill:#767676;fill-opacity:1"
       id="path4233"
       inkscape:connector-curvature="0" />
    <path
       d="m 66.897461,23.412053 1.772461,-7.402343 1.030273,0 -1.791992,7.402343 -1.010742,0 z"
       style="font-weight:bold;font-size:10px;fill:#767676;fill-opacity:1"
       id="path4235"
       inkscape:connector-curvature="0" />
    <path
       d="m 70.40332,17.401311 0,-1.269531 1.372071,0 0,1.269531 -1.372071,0 z m 0,5.888672 0,-5.185547 1.372071,0 0,5.185547 -1.372071,0 z"
       style="font-weight:bold;font-size:10px;fill:#767676;fill-opacity:1"
       id="path4237"
       inkscape:connector-curvature="0" />
    <path
       d="m 73.074219,18.104436 1.264648,0 0,0.708008 q 0.678711,-0.825195 1.616211,-0.825195 0.498047,0 0.864258,0.205078 0.366211,0.205078 0.600586,0.620117 0.341797,-0.415039 0.737305,-0.620117 0.395507,-0.205078 0.844726,-0.205078 0.571289,0 0.966797,0.234375 0.395508,0.229492 0.59082,0.678711 0.141602,0.332031 0.141602,1.074218 l 0,3.31543 -1.37207,0 0,-2.963867 q 0,-0.771484 -0.141602,-0.996094 -0.19043,-0.292969 -0.585938,-0.292969 -0.288085,0 -0.541992,0.175782 -0.253906,0.175781 -0.366211,0.517578 -0.112304,0.336914 -0.112304,1.069336 l 0,2.490234 -1.372071,0 0,-2.841797 q 0,-0.756836 -0.07324,-0.976562 -0.07324,-0.219727 -0.229492,-0.327149 -0.151367,-0.107422 -0.415039,-0.107422 -0.317383,0 -0.571289,0.170899 -0.253906,0.170898 -0.366211,0.493164 -0.107422,0.322266 -0.107422,1.069336 l 0,2.519531 -1.37207,0 0,-5.185547 z"
       style="font-weight:bold;font-size:10px;fill:#767676;fill-opacity:1"
       id="path4239"
       inkscape:connector-curvature="0" />
    <path
       d="m 82.024414,18.104436 1.279297,0 0,0.761719 q 0.249023,-0.390625 0.673828,-0.634766 0.424805,-0.24414 0.942383,-0.24414 0.90332,0 1.533203,0.708008 0.629883,0.708007 0.629883,1.972656 0,1.298828 -0.634766,2.021484 -0.634765,0.717774 -1.538086,0.717774 -0.429687,0 -0.78125,-0.170899 -0.346679,-0.170898 -0.732422,-0.585937 l 0,2.612304 -1.37207,0 0,-7.158203 z m 1.357422,2.504883 q 0,0.874023 0.34668,1.293945 0.346679,0.415039 0.844726,0.415039 0.478516,0 0.795899,-0.380859 0.317382,-0.385742 0.317382,-1.259766 0,-0.815429 -0.327148,-1.210937 -0.327148,-0.395508 -0.810547,-0.395508 -0.50293,0 -0.834961,0.390625 -0.332031,0.385742 -0.332031,1.147461 z"
       style="font-weight:bold;font-size:10px;fill:#767676;fill-opacity:1"
       id="path4241"
       inkscape:connector-curvature="0" />
    <path
       d="m 87.859375,20.623967 q 0,-0.683593 0.336914,-1.323242 0.336914,-0.639648 0.952148,-0.976562 0.620118,-0.336914 1.381836,-0.336914 1.176758,0 1.928711,0.766601 0.751953,0.761719 0.751953,1.928711 0,1.176758 -0.761718,1.953125 -0.756836,0.771485 -1.90918,0.771485 -0.712891,0 -1.362305,-0.322266 -0.644531,-0.322266 -0.981445,-0.942383 -0.336914,-0.625 -0.336914,-1.518555 z m 1.40625,0.07324 q 0,0.771484 0.366211,1.18164 0.366211,0.410157 0.90332,0.410157 0.53711,0 0.898438,-0.410157 0.366211,-0.410156 0.366211,-1.191406 0,-0.761719 -0.366211,-1.171875 -0.361328,-0.410156 -0.898438,-0.410156 -0.537109,0 -0.90332,0.410156 -0.366211,0.410156 -0.366211,1.181641 z"
       style="font-weight:bold;font-size:10px;fill:#767676;fill-opacity:1"
       id="path4243"
       inkscape:connector-curvature="0" />
    <path
       d="m 95.603516,23.289983 -1.372071,0 0,-5.185547 1.274414,0 0,0.737305 q 0.327149,-0.522461 0.585938,-0.688477 0.263672,-0.166015 0.595703,-0.166015 0.46875,0 0.90332,0.258789 l -0.424804,1.196289 q -0.34668,-0.22461 -0.644532,-0.22461 -0.288086,0 -0.488281,0.161133 -0.200195,0.15625 -0.317383,0.571289 -0.112304,0.415039 -0.112304,1.738282 l 0,1.601562 z"
       style="font-weight:bold;font-size:10px;fill:#767676;fill-opacity:1"
       id="path4245"
       inkscape:connector-curvature="0" />
    <path
       d="m 100.55469,18.104436 0,1.09375 -0.937503,0 0,2.089844 q 0,0.634766 0.02442,0.742187 0.0293,0.10254 0.12207,0.170899 0.09766,0.06836 0.234375,0.06836 0.190428,0 0.551748,-0.131836 l 0.11719,1.064453 q -0.47851,0.205079 -1.083977,0.205079 -0.371094,0 -0.668946,-0.122071 -0.297851,-0.126953 -0.439453,-0.322265 -0.136718,-0.200196 -0.190429,-0.53711 -0.04395,-0.239258 -0.04395,-0.966797 l 0,-2.260742 -0.629882,0 0,-1.09375 0.629882,0 0,-1.030273 1.376953,-0.800781 0,1.831054 0.937502,0 z"
       style="font-weight:bold;font-size:10px;fill:#767676;fill-opacity:1"
       id="path4247"
       inkscape:connector-curvature="0" />
  </g>
</svg>
