<?xml version="1.0" encoding="utf-8"?>
<!-- Generator: Adobe Illustrator 16.0.4, SVG Export Plug-In . SVG Version: 6.00 Build 0)  -->
<!DOCTYPE svg PUBLIC "-//W3C//DTD SVG 1.1//EN" "http://www.w3.org/Graphics/SVG/1.1/DTD/svg11.dtd">
<svg version="1.1" id="Livello_1" xmlns="http://www.w3.org/2000/svg" xmlns:xlink="http://www.w3.org/1999/xlink" x="0px" y="0px"
	 width="135.644px" height="135.642px" viewBox="0 0 135.644 135.642" enable-background="new 0 0 135.644 135.642"
	 xml:space="preserve">
<rect x="106.515" y="107.007" fill="#FFFFFF" width="25.816" height="25.815"/>
<polygon fill="#009BDE" points="122.183,114.76 119.97,114.76 119.97,125.582 118.197,125.582 118.197,114.76 115.981,114.76 
	115.981,113.181 122.183,113.181 "/>
<path fill="#009BDE" d="M123.082,125.582h-1.771l2.657-12.401h1.772l2.656,12.401h-1.771l-0.664-3.1h-2.215L123.082,125.582z
	 M124.854,115.838l-0.885,5.316h1.772L124.854,115.838z"/>
<path fill="#1E335C" d="M131.265,131.757h-24.75v-24.75h24.75V131.757z M132.331,105.941h-26.882v26.88h26.882V105.941z"/>
<g>
	<path fill="none" stroke="#1E335C" stroke-width="1.67" stroke-miterlimit="10" d="M131.265,131.757h-24.75v-24.75h24.75V131.757z
		 M132.331,105.941h-26.882v26.88h26.882V105.941z"/>
</g>
<path fill="#1E335C" d="M4.781,4.782h126.08v126.079H4.781V4.782z M0,135.642h135.644V0H0V135.642z"/>
<rect x="27.354" y="32.462" fill="#004987" width="35.865" height="70.734"/>
<rect x="73.048" y="32.462" fill="#009BDE" width="35.371" height="70.734"/>
<g>
	<path fill="#009BDE" d="M53.733,32.461c0,4.666-3.782,8.446-8.446,8.446s-8.445-3.78-8.445-8.446c0-4.663,3.781-8.445,8.445-8.445
		S53.733,27.798,53.733,32.461"/>
	<path fill="#004987" d="M99.18,32.461c0,4.666-3.782,8.446-8.446,8.446c-4.663,0-8.445-3.78-8.445-8.446
		c0-4.663,3.782-8.445,8.445-8.445C95.397,24.016,99.18,27.798,99.18,32.461"/>
	<path fill="#009BDE" d="M112.114,125.582h-2.734v-12.401h2.748c2.595,0,3.543,0.941,3.543,3.544v4.873
		C115.671,124.234,114.758,125.582,112.114,125.582 M112.093,114.51h-0.941v9.744h0.977c1.874,0,1.771-1.275,1.771-3.1v-3.986
		C113.899,115.471,113.85,114.51,112.093,114.51"/>
</g>
</svg>
