<?xml version="1.0" encoding="UTF-8" standalone="no"?>
<svg
   xmlns:dc="http://purl.org/dc/elements/1.1/"
   xmlns:cc="http://creativecommons.org/ns#"
   xmlns:rdf="http://www.w3.org/1999/02/22-rdf-syntax-ns#"
   xmlns:svg="http://www.w3.org/2000/svg"
   xmlns="http://www.w3.org/2000/svg"
   xmlns:sodipodi="http://sodipodi.sourceforge.net/DTD/sodipodi-0.dtd"
   xmlns:inkscape="http://www.inkscape.org/namespaces/inkscape"
   version="1.1"
   id="svg2"
   height="260"
   width="360"
   inkscape:version="0.91 r13725"
   sodipodi:docname="flash_Gembarovic2D_schema.svg">
  <sodipodi:namedview
     pagecolor="#ffffff"
     bordercolor="#666666"
     borderopacity="1"
     objecttolerance="10"
     gridtolerance="10"
     guidetolerance="10"
     inkscape:pageopacity="0"
     inkscape:pageshadow="2"
     inkscape:window-width="1879"
     inkscape:window-height="1056"
     id="namedview81"
     showgrid="false"
     inkscape:zoom="1.5225806"
     inkscape:cx="282.14396"
     inkscape:cy="87.249376"
     inkscape:window-x="41"
     inkscape:window-y="24"
     inkscape:window-maximized="1"
     inkscape:current-layer="svg2"
     showguides="false" />
  <defs
     id="defs4">
    <marker
       style="overflow:visible"
       id="Arrow1Mstart"
       refX="0"
       refY="0"
       orient="auto">
      <path
         transform="matrix(0.4,0,0,0.4,4,0)"
         style="fill-rule:evenodd;stroke:#000000;stroke-width:1pt"
         d="M 0,0 5,-5 -12.5,0 5,5 0,0 Z"
         id="path4321"
         inkscape:connector-curvature="0" />
    </marker>
    <marker
       style="overflow:visible"
       id="Arrow1Lstart"
       refX="0"
       refY="0"
       orient="auto">
      <path
         transform="matrix(0.8,0,0,0.8,10,0)"
         style="fill-rule:evenodd;stroke:#000000;stroke-width:1pt"
         d="M 0,0 5,-5 -12.5,0 5,5 0,0 Z"
         id="path3785"
         inkscape:connector-curvature="0" />
    </marker>
    <marker
       style="overflow:visible"
       id="Arrow1Lend"
       refX="0"
       refY="0"
       orient="auto">
      <path
         transform="matrix(-0.8,0,0,-0.8,-10,0)"
         style="fill-rule:evenodd;stroke:#000000;stroke-width:1pt"
         d="M 0,0 5,-5 -12.5,0 5,5 0,0 Z"
         id="path3788"
         inkscape:connector-curvature="0" />
    </marker>
    <marker
       style="overflow:visible"
       id="Arrow1Lstart-9"
       refX="0"
       refY="0"
       orient="auto">
      <path
         transform="matrix(0.8,0,0,0.8,10,0)"
         style="fill-rule:evenodd;stroke:#000000;stroke-width:1pt"
         d="M 0,0 5,-5 -12.5,0 5,5 0,0 Z"
         id="path3785-6"
         inkscape:connector-curvature="0" />
    </marker>
    <marker
       style="overflow:visible"
       id="Arrow1Lend-6"
       refX="0"
       refY="0"
       orient="auto">
      <path
         transform="matrix(-0.8,0,0,-0.8,-10,0)"
         style="fill-rule:evenodd;stroke:#000000;stroke-width:1pt"
         d="M 0,0 5,-5 -12.5,0 5,5 0,0 Z"
         id="path3788-1"
         inkscape:connector-curvature="0" />
    </marker>
    <marker
       style="overflow:visible"
       id="Arrow1Lstart-3"
       refX="0"
       refY="0"
       orient="auto">
      <path
         transform="matrix(0.8,0,0,0.8,10,0)"
         style="fill-rule:evenodd;stroke:#000000;stroke-width:1pt"
         d="M 0,0 5,-5 -12.5,0 5,5 0,0 Z"
         id="path3785-0"
         inkscape:connector-curvature="0" />
    </marker>
    <marker
       style="overflow:visible"
       id="Arrow1Lend-7"
       refX="0"
       refY="0"
       orient="auto">
      <path
         transform="matrix(-0.8,0,0,-0.8,-10,0)"
         style="fill-rule:evenodd;stroke:#000000;stroke-width:1pt"
         d="M 0,0 5,-5 -12.5,0 5,5 0,0 Z"
         id="path3788-6"
         inkscape:connector-curvature="0" />
    </marker>
    <marker
       style="overflow:visible"
       id="Arrow1Lend-4"
       refX="0"
       refY="0"
       orient="auto">
      <path
         transform="matrix(-0.8,0,0,-0.8,-10,0)"
         style="fill-rule:evenodd;stroke:#000000;stroke-width:1pt"
         d="M 0,0 5,-5 -12.5,0 5,5 0,0 Z"
         id="path3788-2"
         inkscape:connector-curvature="0" />
    </marker>
    <marker
       style="overflow:visible"
       id="Arrow1Lstart-3-7"
       refX="0"
       refY="0"
       orient="auto">
      <path
         transform="matrix(0.8,0,0,0.8,10,0)"
         style="fill-rule:evenodd;stroke:#000000;stroke-width:1pt"
         d="M 0,0 5,-5 -12.5,0 5,5 0,0 Z"
         id="path3785-0-1"
         inkscape:connector-curvature="0" />
    </marker>
    <marker
       style="overflow:visible"
       id="Arrow1Lend-1"
       refX="0"
       refY="0"
       orient="auto">
      <path
         transform="matrix(-0.8,0,0,-0.8,-10,0)"
         style="fill-rule:evenodd;stroke:#000000;stroke-width:1pt"
         d="M 0,0 5,-5 -12.5,0 5,5 0,0 Z"
         id="path3788-20"
         inkscape:connector-curvature="0" />
    </marker>
    <marker
       style="overflow:visible"
       id="marker5606"
       refX="0"
       refY="0"
       orient="auto">
      <path
         transform="matrix(0.8,0,0,0.8,10,0)"
         style="fill-rule:evenodd;stroke:#000000;stroke-width:1pt"
         d="M 0,0 5,-5 -12.5,0 5,5 0,0 Z"
         id="path5608"
         inkscape:connector-curvature="0" />
    </marker>
    <marker
       style="overflow:visible"
       id="marker5610"
       refX="0"
       refY="0"
       orient="auto">
      <path
         transform="matrix(-0.8,0,0,-0.8,-10,0)"
         style="fill-rule:evenodd;stroke:#000000;stroke-width:1pt"
         d="M 0,0 5,-5 -12.5,0 5,5 0,0 Z"
         id="path5612"
         inkscape:connector-curvature="0" />
    </marker>
    <marker
       style="overflow:visible"
       id="Arrow1Lstart-2"
       refX="0"
       refY="0"
       orient="auto">
      <path
         transform="matrix(0.8,0,0,0.8,10,0)"
         style="fill-rule:evenodd;stroke:#000000;stroke-width:1pt"
         d="M 0,0 5,-5 -12.5,0 5,5 0,0 Z"
         id="path3785-5"
         inkscape:connector-curvature="0" />
    </marker>
    <marker
       style="overflow:visible"
       id="Arrow1Lend-15"
       refX="0"
       refY="0"
       orient="auto">
      <path
         transform="matrix(-0.8,0,0,-0.8,-10,0)"
         style="fill-rule:evenodd;stroke:#000000;stroke-width:1pt"
         d="M 0,0 5,-5 -12.5,0 5,5 0,0 Z"
         id="path3788-3"
         inkscape:connector-curvature="0" />
    </marker>
    <marker
       style="overflow:visible"
       id="Arrow1Lstart-3-2"
       refX="0"
       refY="0"
       orient="auto">
      <path
         transform="matrix(0.8,0,0,0.8,10,0)"
         style="fill-rule:evenodd;stroke:#000000;stroke-width:1pt"
         d="M 0,0 5,-5 -12.5,0 5,5 0,0 Z"
         id="path3785-0-9"
         inkscape:connector-curvature="0" />
    </marker>
    <marker
       style="overflow:visible"
       id="Arrow1Lend-12"
       refX="0"
       refY="0"
       orient="auto">
      <path
         transform="matrix(-0.8,0,0,-0.8,-10,0)"
         style="fill-rule:evenodd;stroke:#000000;stroke-width:1pt"
         d="M 0,0 5,-5 -12.5,0 5,5 0,0 Z"
         id="path3788-7"
         inkscape:connector-curvature="0" />
    </marker>
    <marker
       style="overflow:visible"
       id="marker4767"
       refX="0"
       refY="0"
       orient="auto">
      <path
         transform="matrix(0.8,0,0,0.8,10,0)"
         style="fill-rule:evenodd;stroke:#000000;stroke-width:1pt"
         d="M 0,0 5,-5 -12.5,0 5,5 0,0 Z"
         id="path4769"
         inkscape:connector-curvature="0" />
    </marker>
    <marker
       style="overflow:visible"
       id="marker4771"
       refX="0"
       refY="0"
       orient="auto">
      <path
         transform="matrix(-0.8,0,0,-0.8,-10,0)"
         style="fill-rule:evenodd;stroke:#000000;stroke-width:1pt"
         d="M 0,0 5,-5 -12.5,0 5,5 0,0 Z"
         id="path4773"
         inkscape:connector-curvature="0" />
    </marker>
    <marker
       style="overflow:visible"
       id="Arrow1Lstart-3-2-3"
       refX="0"
       refY="0"
       orient="auto">
      <path
         transform="matrix(0.8,0,0,0.8,10,0)"
         style="fill-rule:evenodd;stroke:#000000;stroke-width:1pt"
         d="M 0,0 5,-5 -12.5,0 5,5 0,0 Z"
         id="path3785-0-9-6"
         inkscape:connector-curvature="0" />
    </marker>
    <marker
       style="overflow:visible"
       id="Arrow1Lend-12-7"
       refX="0"
       refY="0"
       orient="auto">
      <path
         transform="matrix(-0.8,0,0,-0.8,-10,0)"
         style="fill-rule:evenodd;stroke:#000000;stroke-width:1pt"
         d="M 0,0 5,-5 -12.5,0 5,5 0,0 Z"
         id="path3788-7-5"
         inkscape:connector-curvature="0" />
    </marker>
  </defs>
  <metadata
     id="metadata7">
    <rdf:RDF>
      <cc:Work
         rdf:about="">
        <dc:format>image/svg+xml</dc:format>
        <dc:type
           rdf:resource="http://purl.org/dc/dcmitype/StillImage" />
        <dc:title></dc:title>
      </cc:Work>
    </rdf:RDF>
  </metadata>
  <path
     inkscape:connector-curvature="0"
     style="fill:none;stroke:#000000;stroke-width:1.76269698;stroke-linecap:butt;stroke-linejoin:miter;stroke-miterlimit:4;stroke-dasharray:none;stroke-dashoffset:0;stroke-opacity:1;marker-start:none;marker-mid:none"
     d="m 263.41855,37.44805 c -10.69342,0 -135.73737,-0.55329 -152.39744,-0.55329"
     id="path3779-2-5-35-6"
     sodipodi:nodetypes="cc" />
  <path
     inkscape:connector-curvature="0"
     style="fill:none;stroke:#000000;stroke-width:1.76269698;stroke-linecap:butt;stroke-linejoin:miter;stroke-miterlimit:4;stroke-dasharray:none;stroke-dashoffset:0;stroke-opacity:1;marker-start:none;marker-mid:none"
     d="m 264.09576,256.69944 c -10.69342,0 -135.40898,-0.55329 -152.06905,-0.55329"
     id="path3779-2-5-35-6-3"
     sodipodi:nodetypes="cc" />
  <path
     inkscape:connector-curvature="0"
     style="fill:none;stroke:#ff0000;stroke-width:1.76269698;stroke-linecap:butt;stroke-linejoin:round;stroke-miterlimit:4;stroke-dasharray:none;stroke-dashoffset:0;stroke-opacity:1"
     id="path2985"
     d="M 112.68831,36.81723 A 35.47361,109.67126 0 0 1 148.16168,146.08167 35.47361,109.67126 0 0 1 112.95148,256.15673 35.47361,109.67126 0 0 1 77.2169,147.70892 35.47361,109.67126 0 0 1 112.16198,36.8293" />
  <path
     inkscape:connector-curvature="0"
     style="fill:#ff0000;fill-opacity:0.48414995;fill-rule:evenodd;stroke:#ff0000;stroke-width:1.76269698;stroke-linecap:butt;stroke-linejoin:round;stroke-miterlimit:4;stroke-dasharray:none;stroke-dashoffset:0;stroke-opacity:1"
     id="path2985-0-2"
     d="m 111.79543,66.59161 a 17.474617,79.896884 0 0 1 17.4745,79.60051 17.474617,79.896884 0 0 1 -17.34486,80.19106 17.474617,79.896884 0 0 1 -17.60318,-79.00559 17.474617,79.896884 0 0 1 17.21427,-80.77719" />
  <g
     id="g4484"
     transform="matrix(0.46703847,0,0,1.0015934,171.52657,93.258864)"
     style="stroke-width:1.46210292;stroke-miterlimit:4;stroke-dasharray:none">
    <path
       transform="matrix(0,1,-1,0,0,0)"
       d="m 67.617353,-319.87068 a 14.581102,13.35473 0 0 1 -14.394096,13.04592 14.581102,13.35473 0 0 1 -14.747325,-12.71067"
       sodipodi:open="true"
       sodipodi:end="3.0934256"
       sodipodi:start="0.023047074"
       sodipodi:ry="13.35473"
       sodipodi:rx="14.581102"
       sodipodi:cy="-320.17844"
       sodipodi:cx="53.040123"
       sodipodi:type="arc"
       id="path4480"
       style="opacity:1;fill:#ffffff;fill-opacity:1;fill-rule:evenodd;stroke:#000000;stroke-width:1.46210292;stroke-linecap:square;stroke-linejoin:miter;stroke-miterlimit:4;stroke-dasharray:none;stroke-dashoffset:0;stroke-opacity:1" />
    <path
       sodipodi:nodetypes="ccc"
       inkscape:connector-curvature="0"
       id="path4474"
       d="M 312.29874,34.231985 346.49701,53.976368 312.6786,71.664112"
       style="fill:none;fill-rule:evenodd;stroke:#000000;stroke-width:1.46210292;stroke-linecap:butt;stroke-linejoin:miter;stroke-miterlimit:4;stroke-dasharray:none;stroke-opacity:1" />
  </g>
  <path
     inkscape:connector-curvature="0"
     style="fill:none;stroke:#000000;stroke-width:1.76269698;stroke-linecap:butt;stroke-linejoin:miter;stroke-miterlimit:4;stroke-dasharray:5.2880911, 1.76269703;stroke-dashoffset:0;stroke-opacity:1"
     d="m 37.307548,146.4885 287.123152,0"
     id="path3777"
     sodipodi:nodetypes="cc" />
  <text
     sodipodi:linespacing="125%"
     xml:space="preserve"
     style="font-style:normal;font-variant:normal;font-weight:normal;font-stretch:normal;font-size:18px;line-height:125%;font-family:Arial;-inkscape-font-specification:Arial;letter-spacing:0px;word-spacing:0px;fill:#000000;fill-opacity:1;stroke:none"
     x="-229.03943"
     y="208.0638"
     id="text4341"
     transform="matrix(0,-1,1,0,0,0)"><tspan
       x="-229.03943"
       y="208.0638"
       id="tspan4343"
       style="font-size:12.5px"><tspan
         x="-229.03943"
         y="208.0638"
         style="font-size:12.5px"
         id="tspan4345">#:jg2d_diameter:#</tspan></tspan></text>
  <text
     sodipodi:linespacing="125%"
     xml:space="preserve"
     style="font-style:normal;font-variant:normal;font-weight:normal;font-stretch:normal;font-size:18px;line-height:125%;font-family:Arial;-inkscape-font-specification:Arial;letter-spacing:0px;word-spacing:0px;fill:#000000;fill-opacity:1;stroke:none"
     x="132.18555"
     y="22.536694"
     id="text4335"><tspan
       x="132.18555"
       y="22.536694"
       id="tspan4337"
       style="font-size:12.5px"><tspan
         x="132.18555"
         y="22.536694"
         style="font-size:12.5px"
         id="tspan4339">#:jg2d_thickness:#</tspan></tspan></text>
  <path
     inkscape:connector-curvature="0"
     style="fill:none;stroke:#0003ff;stroke-width:1.76269698;stroke-linecap:butt;stroke-linejoin:round;stroke-miterlimit:4;stroke-dasharray:none;stroke-dashoffset:0;stroke-opacity:1"
     id="path2985-01"
     d="M 262.068,37.59199 A 35.473612,109.67126 0 0 1 297.54137,146.85644 35.473612,109.67126 0 0 1 262.33118,256.93149 35.473612,109.67126 0 0 1 226.59659,148.48369 35.473612,109.67126 0 0 1 261.54168,37.60407" />
  <path
     inkscape:connector-curvature="0"
     style="fill:#0009ff;fill-opacity:0.48414995;fill-rule:evenodd;stroke:#0003ff;stroke-width:1.76269698;stroke-linecap:butt;stroke-linejoin:round;stroke-miterlimit:4;stroke-dasharray:none;stroke-dashoffset:0;stroke-opacity:1"
     id="path2985-0-2-1"
     d="m 261.17514,79.018 a 16.760331,68.245255 0 0 1 16.76023,67.99211 16.760331,68.245255 0 0 1 -16.63588,68.49652 16.760331,68.245255 0 0 1 -16.88364,-67.48394 16.760331,68.245255 0 0 1 16.51063,-68.99718" />
  <text
     sodipodi:linespacing="125%"
     xml:space="preserve"
     style="font-style:normal;font-variant:normal;font-weight:normal;font-stretch:normal;font-size:18px;line-height:125%;font-family:Arial;-inkscape-font-specification:Arial;letter-spacing:0px;word-spacing:0px;fill:#000000;fill-opacity:1;stroke:none"
     x="-255.05064"
     y="344.49203"
     id="text4325"
     transform="matrix(0,-1,1,0,0,0)"><tspan
       x="-255.05064"
       y="344.49203"
       id="tspan4327"
       style="font-size:12.5px"><tspan
         x="-255.05064"
         y="344.49203"
         style="font-size:12.5px"
         id="tspan4329">#:jg2d_guessViewedOuter:#</tspan></tspan></text>
  <path
     inkscape:connector-curvature="0"
     style="fill:none;stroke:#000000;stroke-width:0.88134849;stroke-linecap:butt;stroke-linejoin:miter;stroke-miterlimit:4;stroke-dasharray:0.88134852, 0.88134852;stroke-dashoffset:0;stroke-opacity:1;marker-start:none;marker-mid:none;marker-end:none"
     d="m 112.19039,66.59084 c -10.69342,0 -35.91552,0.002 -52.57559,0.002"
     id="path3779-2-5-3" />
  <path
     inkscape:connector-curvature="0"
     style="fill:none;stroke:#000000;stroke-width:0.88134849;stroke-linecap:butt;stroke-linejoin:miter;stroke-miterlimit:4;stroke-dasharray:0.88134852, 0.88134852;stroke-dashoffset:0;stroke-opacity:1;marker-start:none;marker-mid:none;marker-end:none"
     d="m 111.83325,226.93944 c -10.69342,0 -35.91552,0.002 -52.57559,0.002"
     id="path3779-2-5-3-75" />
  <path
     inkscape:connector-curvature="0"
     style="fill:none;stroke:#000000;stroke-width:0.88134849;stroke-linecap:butt;stroke-linejoin:miter;stroke-miterlimit:4;stroke-dasharray:0.88134852, 0.88134852;stroke-dashoffset:0;stroke-opacity:1;marker-start:none;marker-mid:none;marker-end:none"
     d="m 260.00766,79.23724 c 10.6935,0 35.91557,0.002 52.57557,0.002"
     id="path3779-2-5-3-6" />
  <path
     inkscape:connector-curvature="0"
     style="fill:none;stroke:#000000;stroke-width:0.88134849;stroke-linecap:butt;stroke-linejoin:miter;stroke-miterlimit:4;stroke-dasharray:0.88134852, 0.88134852;stroke-dashoffset:0;stroke-opacity:1;marker-start:none;marker-mid:none;marker-end:none"
     d="m 258.93627,215.72774 c 10.6934,0 35.9155,0.002 52.57556,0.002"
     id="path3779-2-5-3-75-6" />
  <g
     id="g4374"
     transform="matrix(0,-0.62838809,0.57794957,0,-437.11847,-142.72482)">
    <path
       inkscape:connector-curvature="0"
       transform="matrix(0.98082855,-0.19487266,0.19487266,0.98082855,-167.29263,-74.331957)"
       d="m -436.42856,830.21933 -23.22264,-12.14067 -10.35576,24.07166 4.37028,-25.83771 -26.09362,-2.41036 25.92362,-3.82792 -5.77098,-25.56135 11.65139,23.47194 22.52696,-13.38742 -18.72266,18.33436 z"
       id="path4327"
       style="opacity:1;fill:#ff9e00;fill-opacity:1;fill-rule:evenodd;stroke:#fdff00;stroke-width:2;stroke-linecap:square;stroke-linejoin:miter;stroke-miterlimit:4.5;stroke-dasharray:none;stroke-dashoffset:0;stroke-opacity:1" />
    <path
       inkscape:connector-curvature="0"
       transform="matrix(0.34498979,-0.93860644,0.93860644,0.34498979,-1111.241,126.31401)"
       d="m -396.17737,866.41745 -23.22264,-12.14067 -10.35576,24.07166 4.37028,-25.83771 -26.09362,-2.41036 25.92362,-3.82792 -5.77098,-25.56135 11.65139,23.47194 22.52696,-13.38742 -18.72266,18.33436 z"
       id="path4327-3"
       style="opacity:1;fill:#ffe900;fill-opacity:1;fill-rule:evenodd;stroke:#ff5e00;stroke-width:2;stroke-linecap:square;stroke-linejoin:miter;stroke-miterlimit:4.5;stroke-dasharray:none;stroke-dashoffset:0;stroke-opacity:1" />
    <path
       inkscape:connector-curvature="0"
       transform="matrix(0.81475672,-0.57980297,0.57980297,0.81475672,-609.58499,-122.26973)"
       d="m -396.17737,866.41745 -23.22264,-12.14067 -10.35576,24.07166 4.37028,-25.83771 -26.09362,-2.41036 25.92362,-3.82792 -5.77098,-25.56135 11.65139,23.47194 22.52696,-13.38742 -18.72266,18.33436 z"
       id="path4327-3-7"
       style="opacity:1;fill:#feff00;fill-opacity:1;fill-rule:evenodd;stroke:#ffbb00;stroke-width:2;stroke-linecap:square;stroke-linejoin:miter;stroke-miterlimit:4.5;stroke-dasharray:none;stroke-dashoffset:0;stroke-opacity:1" />
  </g>
  <text
     sodipodi:linespacing="125%"
     xml:space="preserve"
     style="font-style:normal;font-variant:normal;font-weight:normal;font-stretch:normal;font-size:18px;line-height:125%;font-family:Arial;-inkscape-font-specification:Arial;letter-spacing:0px;word-spacing:0px;fill:#000000;fill-opacity:1;stroke:none"
     x="-256.56528"
     y="15.369554"
     id="text4315"
     transform="matrix(0,-1,1,0,0,0)"><tspan
       x="-256.56528"
       y="15.369554"
       id="tspan4317"
       style="font-size:12.5px"><tspan
         x="-256.56528"
         y="15.369554"
         style="font-size:12.5px"
         id="tspan4319">#:jg2d_guessIrradiatedOuter:#</tspan></tspan></text>
  <g
     id="g4465">
    <path
       id="path3779-7"
       d="M 59.96332,227.05513 59.24904,67.26138"
       style="fill:none;stroke:#000000;stroke-width:0.88134849px;stroke-linecap:butt;stroke-linejoin:miter;stroke-opacity:1;marker-mid:none"
       inkscape:connector-curvature="0" />
    <path
       sodipodi:nodetypes="cccc"
       inkscape:connector-curvature="0"
       id="rect4499"
       d="m 59.320245,65.4266 2.87902,10.24407 -6.317113,-0.0328 z"
       style="opacity:1;fill:#000000;fill-opacity:1;fill-rule:evenodd;stroke:none;stroke-width:1.08919668;stroke-linecap:square;stroke-linejoin:miter;stroke-miterlimit:4;stroke-dasharray:none;stroke-dashoffset:0;stroke-opacity:1" />
    <path
       sodipodi:nodetypes="cccc"
       inkscape:connector-curvature="0"
       id="rect4499-6"
       d="m 60.188859,227.82581 2.87902,-10.24407 -6.317113,0.0328 z"
       style="opacity:1;fill:#000000;fill-opacity:1;fill-rule:evenodd;stroke:none;stroke-width:1.08919668;stroke-linecap:square;stroke-linejoin:miter;stroke-miterlimit:4;stroke-dasharray:none;stroke-dashoffset:0;stroke-opacity:1" />
  </g>
  <g
     id="g4460">
    <path
       id="path3779"
       d="m 195.61147,255.58992 c 0,-81.28398 -0.71428,-188.09056 -0.71428,-219.16157"
       style="fill:none;stroke:#000000;stroke-width:0.88134849px;stroke-linecap:butt;stroke-linejoin:miter;stroke-opacity:1;marker-mid:none"
       inkscape:connector-curvature="0" />
    <path
       sodipodi:nodetypes="cccc"
       inkscape:connector-curvature="0"
       id="rect4499-7"
       d="m 194.95327,36.01426 2.87902,10.24408 -6.31712,-0.0328 z"
       style="opacity:1;fill:#000000;fill-opacity:1;fill-rule:evenodd;stroke:none;stroke-width:1.08919668;stroke-linecap:square;stroke-linejoin:miter;stroke-miterlimit:4;stroke-dasharray:none;stroke-dashoffset:0;stroke-opacity:1" />
    <path
       sodipodi:nodetypes="cccc"
       inkscape:connector-curvature="0"
       id="rect4499-6-3"
       d="m 195.68544,256.67478 2.87902,-10.24407 -6.31712,0.0328 z"
       style="opacity:1;fill:#000000;fill-opacity:1;fill-rule:evenodd;stroke:none;stroke-width:1.08919668;stroke-linecap:square;stroke-linejoin:miter;stroke-miterlimit:4;stroke-dasharray:none;stroke-dashoffset:0;stroke-opacity:1" />
  </g>
  <g
     id="g4470"
     transform="translate(-14,0)">
    <path
       id="path3779-7-0"
       d="m 321.94903,214.73375 0.7143,-134.27114"
       style="fill:none;stroke:#000000;stroke-width:0.88134849px;stroke-linecap:butt;stroke-linejoin:miter;stroke-opacity:1;marker-mid:none"
       inkscape:connector-curvature="0" />
    <path
       sodipodi:nodetypes="cccc"
       inkscape:connector-curvature="0"
       id="rect4499-5"
       d="m 322.75835,78.61347 2.87902,10.24407 -6.31711,-0.0328 z"
       style="opacity:1;fill:#000000;fill-opacity:1;fill-rule:evenodd;stroke:none;stroke-width:1.08919668;stroke-linecap:square;stroke-linejoin:miter;stroke-miterlimit:4;stroke-dasharray:none;stroke-dashoffset:0;stroke-opacity:1" />
    <path
       sodipodi:nodetypes="cccc"
       inkscape:connector-curvature="0"
       id="rect4499-6-5"
       d="m 321.88579,217.89472 2.87902,-10.24407 -6.31711,0.0328 z"
       style="opacity:1;fill:#000000;fill-opacity:1;fill-rule:evenodd;stroke:none;stroke-width:1.08919668;stroke-linecap:square;stroke-linejoin:miter;stroke-miterlimit:4;stroke-dasharray:none;stroke-dashoffset:0;stroke-opacity:1" />
  </g>
  <g
     id="g4335"
     transform="translate(-1.1203676e-6,-1.7013804e-8)">
    <path
       id="path3779-7-0-3"
       d="m 148.72721,29.306598 98.57141,0.554851"
       style="fill:none;stroke:#000000;stroke-width:0.88134849px;stroke-linecap:butt;stroke-linejoin:miter;stroke-opacity:1;marker-mid:none"
       inkscape:connector-curvature="0" />
    <path
       sodipodi:nodetypes="cccc"
       inkscape:connector-curvature="0"
       id="rect4499-6-6"
       d="m 142.0183,29.551096 13.18795,2.236354 -0.0422,-4.906977 z"
       style="opacity:1;fill:#000000;fill-opacity:1;fill-rule:evenodd;stroke:none;stroke-width:1.08919668;stroke-linecap:square;stroke-linejoin:miter;stroke-miterlimit:4;stroke-dasharray:none;stroke-dashoffset:0;stroke-opacity:1" />
    <path
       sodipodi:nodetypes="cccc"
       inkscape:connector-curvature="0"
       id="rect4499-6-2"
       d="m 255.51952,29.838313 -13.18795,-2.236351 0.0422,4.906978 z"
       style="opacity:1;fill:#000000;fill-opacity:1;fill-rule:evenodd;stroke:none;stroke-width:1.08919668;stroke-linecap:square;stroke-linejoin:miter;stroke-miterlimit:4;stroke-dasharray:none;stroke-dashoffset:0;stroke-opacity:1" />
  </g>
  <path
     style="color:#000000;font-style:normal;font-variant:normal;font-weight:normal;font-stretch:normal;font-size:medium;line-height:normal;font-family:sans-serif;text-indent:0;text-align:start;text-decoration:none;text-decoration-line:none;text-decoration-style:solid;text-decoration-color:#000000;letter-spacing:normal;word-spacing:normal;text-transform:none;direction:ltr;block-progression:tb;writing-mode:lr-tb;baseline-shift:baseline;text-anchor:start;white-space:normal;clip-rule:evenodd;display:inline;overflow:visible;visibility:visible;opacity:1;isolation:auto;mix-blend-mode:normal;color-interpolation:sRGB;color-interpolation-filters:linearRGB;solid-color:#000000;solid-opacity:1;fill:#000000;fill-opacity:1;fill-rule:evenodd;stroke:none;stroke-width:2.28215265;stroke-linecap:round;stroke-linejoin:round;stroke-miterlimit:3;stroke-dasharray:none;stroke-dashoffset:0;stroke-opacity:1;color-rendering:auto;image-rendering:auto;shape-rendering:auto;text-rendering:auto;enable-background:accumulate"
     d="m 55.298828,23.4375 c -2.078293,0.08489 -3.381571,2.222431 -3.257868,4.154058 0,3.300226 0,6.600452 0,9.900678 -1.135535,-1.09607 -3.077875,-1.75944 -4.389388,-0.552719 -1.005832,0.938024 -1.539577,2.374652 -1.60256,3.724873 0.41546,1.063185 1.616012,1.597784 2.231161,2.553511 2.852213,3.311472 4.443972,7.50387 5.349254,11.729796 0.428409,0.975181 1.607942,0.625837 2.443108,0.6852 3.828863,-0.02571 7.661654,0.0088 11.488063,-0.05452 1.125569,-0.298418 1.059987,-1.73679 1.474232,-2.609915 1.099325,-3.341388 1.867616,-6.791532 2.097977,-10.307697 0.128799,-2.032616 0.395668,-4.098216 0.08655,-6.12256 -0.341889,-1.891779 -2.280481,-3.134694 -4.146505,-2.898628 -1.319412,0.06087 -1.872798,-1.896397 -3.410915,-1.692122 -1.225989,0.181528 -2.179827,-0.113016 -3.026351,-0.98446 -0.656208,-0.662942 -2.342876,0.15741 -2.000843,-1.124223 -0.0503,-1.854203 0.329098,-4.007889 -1.147595,-5.443575 -0.578092,-0.570835 -1.369788,-0.945678 -2.188323,-0.957693 z m 0.03906,2.337891 c 1.049413,0.122355 1.023278,1.428467 1.013667,2.251184 0.01512,2.653506 -0.03024,5.310803 0.02276,7.961939 0.158262,1.104933 1.881883,1.227163 2.194489,0.155622 0.147748,-1.0813 0.0265,-2.193232 0.06596,-3.28672 1.257858,-0.363841 2.094433,0.788926 1.95903,1.933398 0.06162,0.95398 -0.135163,1.950706 0.122412,2.873794 0.445574,1.02298 2.139246,0.683667 2.156358,-0.432008 0.0059,-1.00843 8e-4,-2.017002 0.0025,-3.025486 1.215835,-0.345293 2.073668,0.725909 1.958578,1.85537 0.02204,1.12973 -0.05256,2.267486 0.02178,3.391979 0.222956,1.093305 1.95016,1.113843 2.199051,0.02615 0.121738,-1.180683 0.02887,-2.379906 0.0628,-3.568334 1.267871,-0.361072 2.109481,0.808593 1.955928,1.964648 -0.02434,3.601609 -0.342925,7.224872 -1.156433,10.73743 -0.424866,1.584515 -0.897803,3.156419 -1.43034,4.708172 -3.647786,0.01042 -7.295573,0.02083 -10.943359,0.03125 -1.138956,-4.901964 -3.395447,-9.662402 -7.070313,-13.171875 0.06084,-1.289562 1.123638,-2.166169 2.079948,-0.925008 0.949223,0.560943 1.37521,1.796453 2.41284,2.178226 0.880979,0.198807 1.529691,-0.723659 1.358775,-1.530085 0.0156,-4.2615 -0.03122,-8.526013 0.02344,-12.785627 0.08872,-0.550095 0.26985,-1.374552 0.990156,-1.344018 z"
     id="path4492"
     inkscape:connector-curvature="0" />
</svg>
