<?xml version="1.0" encoding="UTF-8" standalone="no"?>
<svg
   xmlns:dc="http://purl.org/dc/elements/1.1/"
   xmlns:cc="http://creativecommons.org/ns#"
   xmlns:rdf="http://www.w3.org/1999/02/22-rdf-syntax-ns#"
   xmlns:svg="http://www.w3.org/2000/svg"
   xmlns="http://www.w3.org/2000/svg"
   xmlns:sodipodi="http://sodipodi.sourceforge.net/DTD/sodipodi-0.dtd"
   xmlns:inkscape="http://www.inkscape.org/namespaces/inkscape"
   xml:space="preserve"
   enable-background="new 0 0 66.464 57.893"
   viewBox="0 0 64.000003 63.999998"
   height="64"
   width="64"
   y="0px"
   x="0px"
   id="Livello_1"
   version="1.1"
   inkscape:version="0.91 r13725"
   sodipodi:docname="flash_wizard.svg"><sodipodi:namedview
     pagecolor="#ffffff"
     bordercolor="#666666"
     borderopacity="1"
     objecttolerance="10"
     gridtolerance="10"
     guidetolerance="10"
     inkscape:pageopacity="0"
     inkscape:pageshadow="2"
     inkscape:window-width="1879"
     inkscape:window-height="1056"
     id="namedview9"
     showgrid="false"
     inkscape:zoom="5.2149125"
     inkscape:cx="-45.841464"
     inkscape:cy="-9.369706"
     inkscape:window-x="41"
     inkscape:window-y="24"
     inkscape:window-maximized="1"
     inkscape:current-layer="Livello_1" /><metadata
     id="metadata25"><rdf:RDF><cc:Work
         rdf:about=""><dc:format>image/svg+xml</dc:format><dc:type
           rdf:resource="http://purl.org/dc/dcmitype/StillImage" /><dc:title></dc:title></cc:Work></rdf:RDF></metadata><defs
     id="defs23" /><path
     inkscape:connector-curvature="0"
     id="path4156"
     d="m 58.796305,62.84329 c 1.366677,-1.05722 2.732939,-3.637437 2.414663,-4.560155 -0.212723,-0.616749 -1.754339,-1.467127 -4.587884,-2.530782 -2.672791,-1.003306 -2.174502,0.09394 -4.083645,-8.992113 C 49.072403,30.259878 48.948922,15.043383 50.047433,10.441494 50.939716,6.7035382 51.928638,6.0384063 54.780749,2.9922308 59.615464,-2.1714502 42.905795,1.0822931 35.05763,5.6247033 32.454704,7.1312506 31.893631,7.9398025 28.065951,15.700349 c -2.624062,5.320192 -12.258405,26.672828 -15.48579,34.321182 -1.189399,2.81869 -2.242506,5.224678 -2.340223,5.346652 -0.09768,0.121985 -1.3066415,0.584872 -2.6864775,1.028631 -2.763823,0.888877 -4.140199,1.647251 -4.261518,2.34806 -0.122069,0.705172 1.540206,3.289191 2.572465,3.998949 1.20719,0.830013 1.6988,0.805786 6.1868145,-0.304976 9.811293,-2.428213 18.350296,-3.407445 24.846121,-2.84928 5.519066,0.474221 14.180474,2.118081 18.259984,3.465561 1.438888,0.475284 2.857489,0.392699 3.638978,-0.211838 z"
     style="fill:#000000;fill-opacity:1;stroke:#ffffff;stroke-opacity:1"
     sodipodi:nodetypes="scssssssscsscssss" /><g
     style="fill:#ffffff;fill-opacity:1;stroke:#0077ff;stroke-width:0.65407499;stroke-linejoin:round;stroke-miterlimit:3.5999999;stroke-dasharray:none;stroke-opacity:1"
     transform="matrix(2.7807789,0,0,3.3623154,8.9630827,-3475.182)"
     id="layer1"><path
       transform="translate(0,1036.4)"
       d="m 4.9174785,7.4328431 4.1795104,-7.5231526 3.9615981,0 L 8.7709354,5.8922758 13.583106,5.778364 2.69999,14.595994 7.8314444,7.4067477 Z"
       style="fill:#ffffff;fill-opacity:1;stroke:#0077ff;stroke-width:0.65407499;stroke-linejoin:round;stroke-miterlimit:3.5999999;stroke-dasharray:none;stroke-opacity:1"
       id="path2996"
       inkscape:connector-curvature="0"
       sodipodi:nodetypes="cccccccc" /></g></svg>