<?xml version="1.0" encoding="UTF-8" standalone="no"?>
<!-- Generator: Adobe Illustrator 16.0.4, SVG Export Plug-In . SVG Version: 6.00 Build 0)  -->

<svg
   xmlns:dc="http://purl.org/dc/elements/1.1/"
   xmlns:cc="http://creativecommons.org/ns#"
   xmlns:rdf="http://www.w3.org/1999/02/22-rdf-syntax-ns#"
   xmlns:svg="http://www.w3.org/2000/svg"
   xmlns="http://www.w3.org/2000/svg"
   xmlns:xlink="http://www.w3.org/1999/xlink"
   xmlns:sodipodi="http://sodipodi.sourceforge.net/DTD/sodipodi-0.dtd"
   xmlns:inkscape="http://www.inkscape.org/namespaces/inkscape"
   version="1.1"
   id="Livello_1"
   x="0px"
   y="0px"
   width="135.644px"
   height="135.643px"
   viewBox="0 0 135.644 135.643"
   enable-background="new 0 0 135.644 135.643"
   xml:space="preserve"
   inkscape:version="0.48.4 r9939"
   sodipodi:docname="flex.svg"><metadata
     id="metadata45"><rdf:RDF><cc:Work
         rdf:about=""><dc:format>image/svg+xml</dc:format><dc:type
           rdf:resource="http://purl.org/dc/dcmitype/StillImage" /></cc:Work></rdf:RDF></metadata><defs
     id="defs43"><defs
       id="defs25"><rect
         height="135.643"
         width="135.645"
         id="SVGID_3_" /></defs><clipPath
       id="SVGID_4_"><use
         id="use29"
         overflow="visible"
         xlink:href="#SVGID_3_" /></clipPath><defs
       id="defs7"><rect
         height="135.643"
         width="135.645"
         id="SVGID_1_" /></defs><clipPath
       id="SVGID_2_"><use
         id="use11"
         overflow="visible"
         xlink:href="#SVGID_1_" /></clipPath></defs><sodipodi:namedview
     pagecolor="#ffffff"
     bordercolor="#666666"
     borderopacity="1"
     objecttolerance="10"
     gridtolerance="10"
     guidetolerance="10"
     inkscape:pageopacity="1"
     inkscape:pageshadow="2"
     inkscape:window-width="1879"
     inkscape:window-height="1056"
     id="namedview41"
     showgrid="false"
     inkscape:zoom="1.7398612"
     inkscape:cx="39.658832"
     inkscape:cy="67.821503"
     inkscape:window-x="41"
     inkscape:window-y="24"
     inkscape:window-maximized="1"
     inkscape:current-layer="Livello_1"
     inkscape:showpageshadow="false"
     showborder="true" /><rect
     x="106.453"
     y="106.673"
     fill="#FFFFFF"
     width="25.816"
     height="25.813"
     id="rect3" /><path
     style="fill:none;stroke:#004987;stroke-width:7.4920001;stroke-miterlimit:10"
     inkscape:connector-curvature="0"
     id="path13"
     d="m 21.504,44.637 c 0,24.859 20.715,44.969 46.317,44.969 m 0,-10e-4 c 25.603,0 46.319,-20.109 46.319,-44.969"
     stroke-miterlimit="10"
     clip-path="url(#SVGID_2_)" /><path
     style="fill:#009bde"
     inkscape:connector-curvature="0"
     id="path15"
     d="m 121.205,122.873 c 0,1.337 -1.082,2.417 -2.42,2.417 -1.334,0 -2.416,-1.08 -2.416,-2.417 0,-1.336 1.082,-2.418 2.416,-2.418 1.338,0 2.42,1.082 2.42,2.418"
     clip-path="url(#SVGID_2_)" /><path
     style="fill:#009bde"
     inkscape:connector-curvature="0"
     id="path17"
     d="m 114.187,117.355 c 0,1.338 -1.084,2.417 -2.419,2.417 -1.336,0 -2.418,-1.079 -2.418,-2.417 0,-1.337 1.082,-2.42 2.418,-2.42 1.335,0.001 2.419,1.084 2.419,2.42"
     clip-path="url(#SVGID_2_)" /><path
     style="fill:#009bde"
     inkscape:connector-curvature="0"
     id="path19"
     d="m 128.225,117.355 c 0,1.338 -1.084,2.417 -2.419,2.417 -1.336,0 -2.419,-1.079 -2.419,-2.417 0,-1.337 1.083,-2.42 2.419,-2.42 1.335,0.001 2.419,1.084 2.419,2.42"
     clip-path="url(#SVGID_2_)" /><path
     style="fill:none;stroke:#1e335c;stroke-width:1.66999996;stroke-miterlimit:10"
     inkscape:connector-curvature="0"
     id="path31"
     d="m 131.203,131.421 h -24.75 v -24.748 h 24.75 v 24.748 z m 1.067,-25.815 h -26.883 v 26.88 h 26.883 v -26.88 z"
     stroke-miterlimit="10"
     clip-path="url(#SVGID_4_)" /><path
     style="fill:#009bde"
     inkscape:connector-curvature="0"
     id="path33"
     d="m 76.971,89.605 c 0,4.453 -3.609,8.061 -8.062,8.061 -4.452,0 -8.062,-3.607 -8.062,-8.061 0,-4.452 3.61,-8.062 8.062,-8.062 4.452,10e-4 8.062,3.61 8.062,8.062"
     clip-path="url(#SVGID_4_)" /><path
     style="fill:#009bde"
     inkscape:connector-curvature="0"
     id="path35"
     d="m 34.73,66.227 c 0,4.454 -3.61,8.063 -8.061,8.063 -4.453,0 -8.063,-3.609 -8.063,-8.063 0,-4.451 3.61,-8.06 8.063,-8.06 4.451,0 8.061,3.608 8.061,8.06"
     clip-path="url(#SVGID_4_)" /><path
     style="fill:#009bde"
     inkscape:connector-curvature="0"
     id="path37"
     d="m 116.484,66.227 c 0,4.454 -3.61,8.063 -8.062,8.063 -4.452,0 -8.062,-3.609 -8.062,-8.063 0,-4.451 3.609,-8.06 8.062,-8.06 4.452,0 8.062,3.608 8.062,8.06"
     clip-path="url(#SVGID_4_)" /><path
     fill="#1E335C"
     d="M4.781,4.782h126.081v126.08H4.781V4.782z M0,135.643h135.645V0H0V135.643z"
     id="path39" /></svg>