<?xml version="1.0" encoding="utf-8"?>
<!-- Generator: Adobe Illustrator 16.0.4, SVG Export Plug-In . SVG Version: 6.00 Build 0)  -->
<!DOCTYPE svg PUBLIC "-//W3C//DTD SVG 1.1//EN" "http://www.w3.org/Graphics/SVG/1.1/DTD/svg11.dtd">
<svg version="1.1" id="Livello_1" xmlns="http://www.w3.org/2000/svg" xmlns:xlink="http://www.w3.org/1999/xlink" x="0px" y="0px"
	 width="66.403px" height="57.955px" viewBox="0 0 66.403 57.955" enable-background="new 0 0 66.403 57.955" xml:space="preserve">
<g>
	<g>
		<path fill="#004987" d="M22.842,34.875l0.004-0.01c-0.989-0.062-1.953-0.154-2.892-0.273c-9.175-1.493-15.505-5.793-15.29-11.169
			c0.243-5.927,8.58-11.255,19.394-13.254c1.725-1.034,3.079-1.949,4.641-2.687c-2.842,0.152-5.577,0.544-8.142,1.125
			C9.16,10.762,0.255,16.434,0.005,22.635c-0.244,6.047,7.921,10.723,18.722,11.945c1.717,0.266,3.524,0.435,5.402,0.492l0-0.011
			c-0.875-0.057-1.731-0.138-2.569-0.24C21.985,34.844,22.414,34.861,22.842,34.875"/>
	</g>
	<path fill="#004987" d="M56.118,17.654c-1.919-5.315-8.072-9.011-16.004-9.426c-1.164,0.641-1.77,0.878-3.992,2.083
		c0.423-0.046,1.248-0.101,1.672-0.127C46.243,9.654,53.353,12.782,56.118,17.654"/>
	<g>
		<path fill="#009BDE" d="M65.411,10.792c-3.043-16.026-21.207-9.46-21.207-9.46l-3.291,1.05c-2.23,0.86-4.287,1.846-6.146,2.866
			c-8.019,4.626-15.071,11.421-16.709,17.11c-0.263,0.911-0.358,2.23-0.183,2.962c0.005,0.043,0.02,0.11,0.038,0.193
			c-0.023,0.48-0.003,0.934,0.072,1.263c0.024,0.15,0.122,0.578,0.288,1.167c-0.759-4.416,4-9.217,4-9.217
			C32.674,7.772,43.952,5.104,43.952,5.104s16.82-4.956,19.748,9.731c0,0,0.473,2.844-0.518,6.619
			c0.316-0.625,0.574-1.232,0.789-1.819c-0.026,0.108-0.051,0.216-0.08,0.327C66.519,14.793,65.411,10.792,65.411,10.792"/>
	</g>
</g>
<g>
	<circle fill="none" stroke="#002D62" stroke-width="3" stroke-miterlimit="10" cx="46.653" cy="38.204" r="18.25"/>
</g>
<path fill="#002D62" d="M58.3,47.402l-5.045-2.878l0.009,1.687H40.933c2.153-1.647,4.775-3.648,5.302-4.027
	c0.929-0.668,2.333-1.677,3.222-3.936c0.501-1.271,1.285-3.571,1.874-5.301c0.093-0.272,0.18-0.528,0.259-0.762
	c0.682,2.803,1.775,8.229,2.42,11.541c0.064,0.34,0.258,0.635,0.546,0.829c0.284,0.192,0.627,0.263,0.97,0.198
	c0.34-0.065,0.634-0.26,0.827-0.547s0.263-0.632,0.197-0.969c-0.087-0.451-2.146-11.104-2.912-13.369
	c-0.175-0.516-0.642-1.886-1.954-1.913c-1.275,0-1.804,1.371-2.119,2.188c-0.096,0.246-0.342,0.967-0.683,1.969
	c-0.534,1.57-1.343,3.944-1.831,5.186c-0.611,1.549-1.482,2.176-2.398,2.836c-0.565,0.408-3.9,2.943-6.245,4.732V31.486l1.614-0.006
	l-2.923-5.017l-2.885,5.039l1.607-0.006v16.008c0,0.714,0.58,1.294,1.293,1.294h16.164l0.008,1.533L58.3,47.402z"/>
</svg>
