<?xml version="1.0" encoding="utf-8"?>
<!-- Generator: Adobe Illustrator 16.0.4, SVG Export Plug-In . SVG Version: 6.00 Build 0)  -->
<!DOCTYPE svg PUBLIC "-//W3C//DTD SVG 1.1//EN" "http://www.w3.org/Graphics/SVG/1.1/DTD/svg11.dtd">
<svg version="1.1" id="Livello_1" xmlns="http://www.w3.org/2000/svg" xmlns:xlink="http://www.w3.org/1999/xlink" x="0px" y="0px"
	 width="135.644px" height="135.643px" viewBox="0 0 135.644 135.643" enable-background="new 0 0 135.644 135.643"
	 xml:space="preserve">
<rect x="106.543" y="106.594" fill="#FFFFFF" width="27.614" height="25.814"/>
<g>
	<path fill="#009BDE" d="M114.318,118.969c0,1.336-1.084,2.42-2.419,2.42c-1.336,0-2.418-1.084-2.418-2.42
		c0-1.334,1.082-2.42,2.418-2.42C113.234,116.549,114.318,117.635,114.318,118.969"/>
	<path fill="#009BDE" d="M128.356,118.969c0,1.336-1.083,2.42-2.418,2.42c-1.336,0-2.419-1.084-2.419-2.42
		c0-1.334,1.083-2.42,2.419-2.42C127.273,116.549,128.356,117.635,128.356,118.969"/>
</g>
<path fill="#1E335C" d="M131.292,131.344h-24.749v-24.75h24.749V131.344z M132.359,105.528h-26.882v26.881h26.882V105.528z"/>
<g>
	<path fill="none" stroke="#1E335C" stroke-width="1.67" stroke-miterlimit="10" d="M131.292,131.344h-24.749v-24.75h24.749V131.344
		z M132.359,105.528h-26.882v26.881h26.882V105.528z"/>
</g>
<path fill="#1E335C" d="M4.782,4.782h126.08v126.076H4.782V4.782z M0,135.643h135.644V0H0V135.643z"/>
<rect x="24.014" y="44.795" fill="#004987" width="87.615" height="44.426"/>
<g>
	<path fill="#009BDE" d="M32.076,67.007c0,4.451-3.609,8.061-8.061,8.061s-8.062-3.609-8.062-8.061c0-4.452,3.61-8.061,8.062-8.061
		S32.076,62.555,32.076,67.007"/>
	<path fill="#009BDE" d="M119.691,67.007c0,4.451-3.609,8.061-8.061,8.061c-4.453,0-8.063-3.609-8.063-8.061
		c0-4.452,3.61-8.061,8.063-8.061C116.082,58.946,119.691,62.555,119.691,67.007"/>
</g>
</svg>
