<?xml version="1.0" encoding="utf-8"?>
<!-- Generator: Adobe Illustrator 16.0.4, SVG Export Plug-In . SVG Version: 6.00 Build 0)  -->
<!DOCTYPE svg PUBLIC "-//W3C//DTD SVG 1.1//EN" "http://www.w3.org/Graphics/SVG/1.1/DTD/svg11.dtd">
<svg version="1.1" id="Livello_1" xmlns="http://www.w3.org/2000/svg" xmlns:xlink="http://www.w3.org/1999/xlink" x="0px" y="0px"
	 width="135.644px" height="135.64px" viewBox="0 0 135.644 135.64" enable-background="new 0 0 135.644 135.64"
	 xml:space="preserve">
<path fill="#009BDE" d="M105.154,88.019c0.677-2.867,1.045-5.853,1.045-8.926c0-21.396-17.344-38.74-38.738-38.74
	c-21.395,0-38.739,17.344-38.739,38.74c0,3.073,0.369,6.059,1.045,8.926H2.835v34.848h130.208V88.019H105.154z"/>
<path fill="#004987" d="M92.233,96.258c3.383-4.872,5.371-10.785,5.371-17.165c0-16.647-13.496-30.143-30.143-30.143
	c-16.647,0-30.142,13.495-30.142,30.143c0,6.38,1.988,12.293,5.37,17.165H2.633v34.848h130.208V96.258H92.233z"/>
<path fill="#1E335C" d="M4.782,4.779h126.079v126.08H4.782V4.779z M0,135.64h135.645V0H0V135.64z"/>
<rect x="106.15" y="106.155" fill="#FFFFFF" width="25.565" height="25.776"/>
<path fill="#1E335C" d="M131.414,131.413h-24.749v-24.747h24.749V131.413z M132.48,105.6H105.6v26.88h26.881V105.6z"/>
<g>
	<path fill="#009BDE" d="M133.314,122.147h-5.818c0.142-0.598,0.219-1.221,0.219-1.861c0-4.465-3.618-8.082-8.082-8.082
		c-4.463,0-8.081,3.617-8.081,8.082c0,0.641,0.077,1.264,0.218,1.861h-5.619v1.72h8.317c-0.706-1.018-1.123-2.25-1.123-3.581
		c0-3.474,2.815-6.288,6.288-6.288s6.289,2.814,6.289,6.288c0,1.331-0.418,2.563-1.123,3.581h8.474"/>
	<path fill="none" stroke="#1E335C" stroke-width="1.67" stroke-miterlimit="10" d="M131.414,131.413h-24.749v-24.747h24.749
		V131.413z M132.48,105.6H105.6v26.88h26.881V105.6z"/>
</g>
</svg>
