<?xml version="1.0" encoding="UTF-8" standalone="no"?>
<!-- Created with Inkscape (http://www.inkscape.org/) -->

<svg
   xmlns:dc="http://purl.org/dc/elements/1.1/"
   xmlns:cc="http://creativecommons.org/ns#"
   xmlns:rdf="http://www.w3.org/1999/02/22-rdf-syntax-ns#"
   xmlns:svg="http://www.w3.org/2000/svg"
   xmlns="http://www.w3.org/2000/svg"
   xmlns:sodipodi="http://sodipodi.sourceforge.net/DTD/sodipodi-0.dtd"
   xmlns:inkscape="http://www.inkscape.org/namespaces/inkscape"
   id="svg2"
   version="1.1"
   inkscape:version="0.91 r13725"
   width="1697.5"
   height="1697.5"
   viewBox="0 0 1697.5 1697.5"
   sodipodi:docname="icon.svg">
  <metadata
     id="metadata8">
    <rdf:RDF>
      <cc:Work
         rdf:about="">
        <dc:format>image/svg+xml</dc:format>
        <dc:type
           rdf:resource="http://purl.org/dc/dcmitype/StillImage" />
        <dc:title></dc:title>
      </cc:Work>
    </rdf:RDF>
  </metadata>
  <defs
     id="defs6" />
  <sodipodi:namedview
     pagecolor="#ffffff"
     bordercolor="#666666"
     borderopacity="1"
     objecttolerance="10"
     gridtolerance="10"
     guidetolerance="10"
     inkscape:pageopacity="0"
     inkscape:pageshadow="2"
     inkscape:window-width="1920"
     inkscape:window-height="1025"
     id="namedview4"
     showgrid="false"
     inkscape:zoom="0.27805596"
     inkscape:cx="1162.4868"
     inkscape:cy="772.66034"
     inkscape:window-x="0"
     inkscape:window-y="31"
     inkscape:window-maximized="1"
     inkscape:current-layer="svg2" />
  <g
     id="g3338"
     transform="translate(7.1928034,64.73517)">
    <path
       style="fill:#0a97d4"
       d="m 568.125,1092.4818 c -71.9311,-8.694 -112.50397,-15.2997 -154.375,-25.1339 -90.6844,-21.2988 -171.29641,-57.2471 -225,-100.3368 -13.85056,-11.11318 -37.06816,-34.80466 -46.68324,-47.6361 -9.14151,-12.19944 -24.19341,-41.38716 -27.66279,-53.642 -7.94357,-28.05885 -7.48115,-61.69906 1.22704,-89.26534 6.46461,-20.46412 19.18208,-44.42392 34.20421,-64.44098 11.45019,-15.25742 42.11647,-46.33574 60.16478,-60.97318 60.73594,-49.25771 147.99075,-92.55175 247.87531,-122.99061 67.08871,-20.44465 171.59473,-41.5058 241.49969,-48.66957 22.31759,-2.28706 49.79048,-4.24598 50.52084,-3.60232 0.72471,0.63867 1.32555,0.27827 -17.39584,10.43462 -9.28125,5.03508 -29.99461,17.2351 -46.0297,27.11117 -35.83835,22.07296 -35.77812,22.04296 -49.5953,24.69957 -49.63711,9.54368 -113.62275,27.93638 -162.57895,46.73338 -67.7349,26.00718 -126.19298,59.17897 -172.42105,97.83956 -12.31634,10.30018 -36.70151,35.20383 -45.18006,46.1407 -25.80293,33.28435 -39.22649,64.30244 -43.00149,99.36435 -4.65007,43.18968 13.93511,91.41621 49.94903,129.61229 56.50506,59.92876 154.93581,104.83046 280.10752,127.77796 13.27256,2.4332 49.24725,6.9954 55.16161,6.9954 0.59861,0 1.08839,0.5625 1.08839,1.25 0,1.764 -10.1186,1.3614 -31.875,-1.2682 z M 529.375,1085 c -0.4249,-0.6875 -1.67533,-1.25 -2.77873,-1.25 -6.54011,0 -58.94325,-13.2824 -85.34627,-21.6324 -25.13354,-7.9485 -64.30281,-24.4693 -88.75,-37.433 -39.33926,-20.8605 -64.95308,-39.94899 -90.98039,-67.80231 -19.61806,-20.9944 -30.71367,-38.19913 -40.03906,-62.08406 -7.07061,-18.1098 -9.43996,-31.54998 -9.43996,-53.54823 0,-28.69216 4.81981,-47.72362 19.1539,-75.63082 6.6026,-12.85472 17.72812,-30.60818 21.63522,-34.52427 0.94379,-0.94595 3.8023,-4.45498 6.35225,-7.79785 11.50184,-15.07838 38.58604,-40.22686 64.16985,-59.58357 71.81586,-54.33595 185.37501,-101.14891 304.44659,-125.50333 11.30024,-2.3113 22.74654,-5.33437 25.43624,-6.71795 2.6897,-1.38357 17.56712,-10.30095 33.06096,-19.8164 15.49382,-9.51545 34.47095,-20.67581 42.17139,-24.80081 7.70045,-4.125 14.00805,-7.92187 14.01691,-8.4375 0.0233,-1.35549 -5.60093,-1.16484 -28.1089,0.95288 -40.8237,3.84097 -89.08749,11.14687 -128.125,19.39483 -6.53125,1.37994 -20.0665,4.1953 -30.07835,6.25637 -147.26054,30.31537 -274.54771,86.21456 -356.77034,156.67853 -9.28142,7.95409 -31.17309,29.82953 -36.48845,36.4614 -2.17917,2.71893 -6.05162,7.47474 -8.60544,10.56849 -21.063,25.51624 -37.44029,60.8446 -42.40935,91.48356 -9.80798,60.4755 18.95802,119.84352 81.85193,168.92814 1.03125,0.80483 7.5,5.43196 14.375,10.28253 46.62761,32.89747 102.10146,57.52467 176.875,78.52237 19.04182,5.3473 21.99197,6.1095 39.21941,10.1329 21.53534,5.0296 72.23804,13.7895 100.15559,17.3039 2.0625,0.2596 4.20507,0.5563 4.76127,0.6593 0.5562,0.103 0.66363,-0.3752 0.23873,-1.0627 z m 603.125,-14.222 c 0,-0.2595 0.9844,-1.2439 2.1875,-2.1875 1.9826,-1.5548 2.0268,-1.5106 0.472,0.472 -1.633,2.0822 -2.6595,2.7444 -2.6595,1.7155 z m 79.375,-39.528 c 1.2444,-1.375 2.5437,-2.5 2.8875,-2.5 0.3437,0 -0.3931,1.125 -1.6375,2.5 -1.2444,1.375 -2.5437,2.5 -2.8875,2.5 -0.3437,0 0.3931,-1.125 1.6375,-2.5 z M 1422.5,1030 c -1.1266,-0.7281 -1.2807,-1.2194 -0.3862,-1.2309 0.8187,-0.01 1.8363,0.5434 2.2612,1.2309 0.9591,1.5519 0.5264,1.5519 -1.875,0 z m -24.4642,-34.90823 c 0,-1.32452 0.4418,-2.13507 0.9821,-1.80122 0.5401,0.33384 0.9821,1.41755 0.9821,2.40822 0,0.99068 -0.442,1.80123 -0.9821,1.80123 -0.5403,0 -0.9821,-1.0837 -0.9821,-2.40823 z M 514.43903,914.6875 c -1.54122,-5.08438 -3.64417,-39.90517 -3.71797,-61.5625 -0.056,-16.43256 0.45149,-23.51703 2.2385,-31.25 25.22188,-109.1428 149.20476,-248.84789 320.46649,-361.10465 51.53685,-33.78081 95.34424,-57.48131 152.49551,-82.50249 26.17444,-11.45935 45.42144,-18.88551 65.32844,-25.2061 9.2812,-2.94685 29.5312,-9.3979 45,-14.33567 46.4558,-14.82913 73.4355,-21.32069 111.25,-26.76775 33.5646,-4.83487 54.5606,-6.08755 88.75,-5.29509 57.726,1.33801 99.8473,10.73009 141.8674,31.63315 69.7136,34.67936 116.527,97.15905 138.6208,185.01114 8.8652,35.25057 9.9979,43.88431 10.0618,76.69246 0.068,34.96706 -1.4856,48.19797 -9.3318,79.46519 -6.2264,24.8127 -22.2526,67.31717 -28.0087,74.28481 -0.852,1.03125 -3.4415,6.54024 -5.7546,12.2422 -4.2383,10.44789 -8.752,16.92723 -7.0614,10.13666 4.4191,-17.75111 8.9058,-53.25948 10.33,-81.75386 2.3811,-47.64214 -9.0529,-96.77284 -33.8861,-145.60461 C 1462.8555,449.99552 1361.9559,398.91437 1225,402.92425 1146.8159,405.21338 1082.4678,420.46764 996.25,457.15137 890.15578,502.2921 783.08918,570.36772 690.41995,651.60576 656.11785,681.67654 615.26586,722.10475 594.15211,746.875 564.99815,781.07785 538.63652,825.96644 527.71744,860 522.04726,877.67329 517.5,902.48809 517.5,915.75744 c 0,2.76496 -2.1235,2.02271 -3.06097,-1.06994 z m 801.49347,-32.19421 c 2.7559,-2.98292 2.848,-2.99484 5,-0.64707 2.0919,2.28207 2.091,2.31537 -0.019,0.72531 -1.8823,-1.41882 -2.6255,-1.32262 -5,0.64706 l -2.789,2.31361 2.8075,-3.03891 z m -4.6825,-66.71524 c 0,-0.25956 0.9844,-1.24394 2.1875,-2.1875 1.9826,-1.55484 2.0268,-1.51063 0.472,0.47195 -1.633,2.08219 -2.6595,2.74435 -2.6595,1.71555 z m 48.6396,-132.25914 c -23.5556,-32.73037 -55.0222,-60.46155 -96.4371,-84.98889 -43.1949,-25.58152 -101.416,-45.80206 -160.9819,-55.91006 -49.2881,-8.36392 -103.89089,-10.2493 -162.1581,-5.59917 -17.48732,1.39561 -16.5155,0.66021 31.5625,-23.88417 17.1875,-8.77442 33.1385,-17.09038 35.4467,-18.47993 3.8088,-2.29295 5.5479,-2.45379 18.8175,-1.7403 38.4858,2.06937 91.0298,11.94492 128.2358,24.10171 46.8033,15.29262 98.154,42.05457 129.9168,67.70744 14.5816,11.77667 38.7818,36.08967 49.2992,49.52897 14.7845,18.89165 33.8221,51.63119 32.4378,55.78408 -0.2519,0.75582 -3.0145,-2.17803 -6.1392,-6.51968 z m -0.8673,-7.11457 c -2.0763,-5.42796 -15.3559,-26.31468 -24.6038,-38.69757 -46.8102,-62.67899 -131.402,-111.27274 -230.0435,-132.14855 -22.5454,-4.77135 -51.2288,-9.0644 -71.9591,-10.77012 l -18.5227,-1.52408 -11.1064,5.55549 c -34.99696,17.50569 -69.0368,35.53468 -69.0368,36.56493 0,0.69162 2.4798,0.86588 5.9375,0.41725 3.26562,-0.42372 18.82817,-1.35248 34.58345,-2.06392 46.31295,-2.09127 98.13895,1.4029 140.72905,9.48814 16.5774,3.14703 38.8449,8.31218 45,10.43818 1.7188,0.59366 6.5,2.03238 10.625,3.19717 28.9098,8.16333 69.3125,25.9743 99.3031,43.77643 14.5122,8.61425 41.858,28.34452 48.2988,34.84795 2.1185,2.13915 8.0247,7.85438 13.125,12.70054 5.1002,4.84615 13.4121,13.70552 18.4708,19.6875 5.0588,5.98197 9.4001,10.87632 9.6473,10.87632 0.2471,0 0.046,-1.05555 -0.4477,-2.34566 z"
       id="path3344"
       inkscape:connector-curvature="0" />
    <path
       style="fill:#0466a2"
       d="m 909.34044,1132.209 c -0.32869,-0.8712 -0.73663,-65.9902 -0.90653,-144.709 l -0.30891,-143.125 -72.5,-0.625 -72.5,-0.625 0,-15 0,-15 178.125,0 178.125,0 0,15 0,15 -72.5,0.625 -72.5,0.625 -0.625,144.375 -0.625,144.375 -31.59347,0.334 c -24.60168,0.2601 -31.72573,-0.016 -32.19109,-1.25 z M 972.5,987.5 l 0.625,-144.375 72.5,-0.625 72.5,-0.625 0,-13.75 0,-13.75 -176.875,0 -176.875,0 0,13.75 0,13.75 72.5,0.625 72.5,0.625 0.30891,143.125 c 0.1699,78.7188 0.57798,143.8382 0.90683,144.7098 0.46505,1.2326 7.34042,1.5104 30.94109,1.25 L 971.875,1131.875 972.5,987.5 Z m 119.4494,145.1204 c -0.4021,-0.6506 4.1979,-8.2394 10.2223,-16.864 6.0243,-8.6246 16.2971,-23.3077 22.8283,-32.6291 30.1487,-43.028 61.287,-87.52477 70.4179,-100.6273 56.7286,-81.40393 115.4071,-164.92122 117.4646,-167.1875 2.5428,-2.80094 8.7194,-3.78713 11.6234,-1.85586 0.7595,0.5051 9.526,12.73086 19.4812,27.16836 9.9552,14.4375 24.5539,35.53125 32.4415,46.875 13.9854,20.11309 36.7274,53.01609 123.1174,178.125 13.7671,19.9375 29.6451,42.8827 35.2844,50.9893 5.6392,8.1067 9.9198,15.2785 9.5126,15.9375 -0.43,0.6958 -10.634,1.1982 -24.3346,1.1982 l -23.5941,0 -36.518,-52.5 -36.518,-52.5 -104.8445,0 -104.8445,0 -5.6096,7.8125 c -3.0853,4.2969 -19.5721,27.7813 -36.6374,52.1875 l -31.0278,44.375 -23.867,0.3392 c -14.0561,0.1997 -24.1675,-0.1471 -24.5981,-0.8438 z m 58.2535,-15.4329 c 30.5737,-44.1263 61.5608,-87.9209 62.7849,-88.7349 0.763,-0.5074 48.6158,-0.7886 106.3398,-0.625 l 104.9525,0.2974 7.9073,11.25 c 4.349,6.1875 15.2954,21.9375 24.3253,35 9.0299,13.0625 19.0489,27.4063 22.2644,31.875 3.2156,4.4688 8.2797,11.7813 11.2534,16.25 2.9738,4.4688 6.0116,8.5383 6.7506,9.0434 1.5699,1.0728 44.9585,1.3003 46.0177,0.2412 0.3933,-0.3934 -3.0598,-6.159 -7.6738,-12.8125 -4.6141,-6.6534 -16.7451,-24.1908 -26.958,-38.9721 -10.2129,-14.7812 -23.4411,-33.9062 -29.3961,-42.5 -5.955,-8.5937 -24.052,-34.75 -40.2156,-58.125 -16.1635,-23.375 -40.2837,-58.25 -53.6002,-77.5 -13.3166,-19.25 -31.7597,-45.96875 -40.9847,-59.375 -20.8075,-30.23854 -19.6805,-28.9594 -25.1085,-28.49814 -4.2999,0.3654 -5.6425,2.1622 -64.7251,86.62314 -33.1838,47.4375 -64.1223,91.59375 -68.7523,98.125 -4.6299,6.5312 -14.6674,20.875 -22.3055,31.875 -16.3835,23.5946 -44.7721,64.1264 -59.0965,84.375 -5.5931,7.9063 -10.1835,15.0781 -10.2009,15.9375 -0.024,1.1944 5.3692,1.5625 22.8901,1.5625 l 22.9217,0 10.6095,-15.3125 z m 86.3279,-121.4309 c 0.6442,-3.36996 78.2242,-115.18019 80.6567,-116.2445 2.4935,-1.091 4.6471,0.27407 7.1698,4.54455 1.2925,2.18804 13.3721,19.74852 26.8435,39.0233 43.3661,62.04785 50.0492,71.903 50.0492,73.8037 0,1.63631 -10.1864,1.86635 -82.6458,1.86635 l -82.6456,0 0.5722,-2.9934 z M 1400,996.32656 c 0,-1.09889 -11.198,-17.68247 -27.4835,-40.70156 -3.8911,-5.5 -17.3595,-24.7924 -29.9297,-42.87199 -12.5702,-18.07959 -23.4949,-32.65863 -24.2772,-32.39787 -1.93,0.64331 -80.8096,113.35295 -80.8096,115.4673 0,1.38621 14.111,1.67756 81.25,1.67756 49.799,0 81.25,-0.45423 81.25,-1.17344 z m -875.625,89.07684 c -27.91755,-3.5144 -78.62025,-12.2743 -100.15559,-17.3039 -17.22744,-4.0234 -20.17759,-4.7856 -39.21941,-10.1329 -74.77354,-20.9977 -130.24739,-45.6249 -176.875,-78.52238 -14.12399,-9.96498 -13.39316,-9.41397 -24.375,-18.37778 -31.73406,-25.9026 -57.83505,-62.73986 -67.13569,-94.751 -9.28725,-31.96508 -8.78762,-59.2384 1.67999,-91.70688 7.36474,-22.84393 20.82509,-47.4594 36.01313,-65.85856 2.55381,-3.09375 6.42626,-7.84956 8.60543,-10.56849 5.31536,-6.63187 27.20703,-28.50731 36.48845,-36.4614 32.04475,-27.46204 71.90308,-53.4035 116.84869,-76.05004 67.76498,-34.1444 152.58511,-62.64921 239.92165,-80.6285 10.01185,-2.06106 23.5471,-4.87642 30.07835,-6.25636 39.03751,-8.24796 87.3013,-15.55386 128.125,-19.39484 22.50797,-2.11771 28.13217,-2.30836 28.1089,-0.95287 -0.009,0.51562 -6.31646,4.3125 -14.01691,8.4375 -7.70044,4.125 -26.67756,15.28536 -42.17139,24.80081 -15.49384,9.51545 -30.37126,18.43283 -33.06096,19.8164 -2.6897,1.38358 -14.136,4.40665 -25.43624,6.71795 -90.56924,18.52466 -173.67223,48.15514 -243.83353,86.93916 -31.83527,17.59802 -54.01949,32.52772 -81.04517,54.54236 -10.92748,8.90132 -37.38994,35.28371 -43.73774,43.60538 -2.54995,3.34287 -5.40846,6.8519 -6.35225,7.79785 -3.9071,3.91609 -15.03262,21.66955 -21.63522,34.52427 -14.33409,27.9072 -19.1539,46.93866 -19.1539,75.63082 0,21.99825 2.36935,35.43842 9.43996,53.54822 9.32539,23.88494 20.421,41.08967 40.03906,62.08407 26.02732,27.85332 51.64113,46.94181 90.98039,67.80231 24.44719,12.9637 63.61646,29.4845 88.75,37.433 26.40302,8.35 78.80616,21.6324 85.34627,21.6324 1.1034,0 2.35383,0.5625 2.77873,1.25 0.4249,0.6875 0.31748,1.1657 -0.23873,1.0627 -0.5562,-0.103 -2.69877,-0.3997 -4.76127,-0.6593 z m 825.4478,-417.52973 c -5.0588,-5.98197 -13.3707,-14.84135 -18.4709,-19.6875 -5.1003,-4.84615 -11.0065,-10.56138 -13.125,-12.70053 -6.4408,-6.50343 -33.7866,-26.2337 -48.2988,-34.84795 -29.9906,-17.80213 -70.3933,-35.6131 -99.3031,-43.77643 -4.125,-1.16479 -8.9062,-2.60351 -10.625,-3.19717 -6.1551,-2.126 -28.4226,-7.29115 -45,-10.43818 -42.5901,-8.08524 -94.4161,-11.57941 -140.72905,-9.48814 -15.75527,0.71144 -31.31782,1.6402 -34.58345,2.06392 -3.4577,0.44863 -5.9375,0.27437 -5.9375,-0.41725 0,-1.03025 34.03984,-19.05924 69.0368,-36.56493 l 11.1064,-5.55549 18.5227,1.52408 c 63.7595,5.24625 128.9,22.38086 180.7091,47.5339 51.3425,24.92647 93.3368,57.95064 121.2935,95.38477 12.0089,16.07989 27.2456,41.04323 25.0515,41.04323 -0.2472,0 -4.5885,-4.89435 -9.6472,-10.87633 z"
       id="path3342"
       inkscape:connector-curvature="0" />
    <path
       style="fill:#012e62"
       d="m 910.59074,1130.9598 c -0.32885,-0.8716 -0.73693,-65.991 -0.90683,-144.7098 l -0.30891,-143.125 -72.5,-0.625 -72.5,-0.625 0,-13.75 0,-13.75 176.875,0 176.875,0 0,13.75 0,13.75 -72.5,0.625 -72.5,0.625 -0.625,144.375 -0.625,144.375 -30.34317,0.3348 c -23.60067,0.2604 -30.47604,-0.017 -30.94109,-1.25 z m 183.19086,-0.022 c 0.017,-0.8594 4.6078,-8.0312 10.2009,-15.9375 14.3244,-20.2486 42.713,-60.7804 59.0965,-84.375 7.6381,-11 17.6756,-25.3438 22.3055,-31.875 4.63,-6.53125 35.5685,-50.6875 68.7522,-98.125 59.0827,-84.46094 60.4253,-86.25774 64.7252,-86.62314 5.428,-0.46126 4.301,-1.7404 25.1085,28.49814 9.225,13.40625 27.6681,40.125 40.9847,59.375 13.3165,19.25 37.4367,54.125 53.6002,77.5 16.1636,23.375 34.2606,49.5313 40.2156,58.125 5.955,8.5938 19.1832,27.7188 29.3961,42.5 10.2129,14.7813 22.3439,32.3187 26.958,38.9721 4.614,6.6535 8.0671,12.4191 7.6738,12.8125 -1.0592,1.0591 -44.4478,0.8316 -46.0177,-0.2412 -0.739,-0.5051 -3.7768,-4.5746 -6.7506,-9.0434 -2.9737,-4.4687 -8.0378,-11.7812 -11.2534,-16.25 -3.2155,-4.4687 -13.2345,-18.8125 -22.2644,-31.875 -9.0299,-13.0625 -19.9763,-28.8125 -24.3253,-35 l -7.9073,-11.25 -104.9525,-0.2974 c -57.724,-0.1636 -105.5768,0.1176 -106.3398,0.625 -1.2241,0.814 -32.2112,44.6086 -62.7849,88.7349 l -10.6095,15.3125 -22.9217,0 c -17.5209,0 -22.9142,-0.3681 -22.8901,-1.5625 z M 1401.25,996.88365 c 0,-1.9007 -6.6831,-11.75585 -50.0492,-73.8037 -13.4714,-19.27477 -25.5511,-36.83526 -26.8435,-39.0233 -2.5227,-4.27048 -4.6763,-5.63555 -7.1698,-4.54455 -2.4325,1.06431 -80.0125,112.87454 -80.6567,116.2445 l -0.5722,2.9934 82.6456,0 c 72.4594,0 82.6458,-0.23004 82.6458,-1.86635 z"
       id="path3340"
       inkscape:connector-curvature="0" />
  </g>
</svg>
