<?xml version="1.0" encoding="UTF-8" standalone="no"?>
<!-- Generator: Adobe Illustrator 16.0.4, SVG Export Plug-In . SVG Version: 6.00 Build 0)  -->

<svg
   xmlns:dc="http://purl.org/dc/elements/1.1/"
   xmlns:cc="http://creativecommons.org/ns#"
   xmlns:rdf="http://www.w3.org/1999/02/22-rdf-syntax-ns#"
   xmlns:svg="http://www.w3.org/2000/svg"
   xmlns="http://www.w3.org/2000/svg"
   xmlns:sodipodi="http://sodipodi.sourceforge.net/DTD/sodipodi-0.dtd"
   xmlns:inkscape="http://www.inkscape.org/namespaces/inkscape"
   version="1.1"
   id="Livello_1"
   x="0px"
   y="0px"
   width="135.644px"
   height="135.64px"
   viewBox="0 0 135.644 135.64"
   enable-background="new 0 0 135.644 135.64"
   xml:space="preserve"
   inkscape:version="0.91 r13725"
   sodipodi:docname="kiln.svg"><metadata
     id="metadata23"><rdf:RDF><cc:Work
         rdf:about=""><dc:format>image/svg+xml</dc:format><dc:type
           rdf:resource="http://purl.org/dc/dcmitype/StillImage" /><dc:title></dc:title></cc:Work></rdf:RDF></metadata><defs
     id="defs21" /><sodipodi:namedview
     pagecolor="#ffffff"
     bordercolor="#666666"
     borderopacity="1"
     objecttolerance="10"
     gridtolerance="10"
     guidetolerance="10"
     inkscape:pageopacity="0"
     inkscape:pageshadow="2"
     inkscape:window-width="1879"
     inkscape:window-height="1056"
     id="namedview19"
     showgrid="false"
     inkscape:zoom="3.4797995"
     inkscape:cx="126.75732"
     inkscape:cy="38.790383"
     inkscape:window-x="41"
     inkscape:window-y="24"
     inkscape:window-maximized="1"
     inkscape:current-layer="Livello_1" /><path
     fill="#1E335C"
     d="M4.782,4.779h126.079v126.08H4.782V4.779z M0,135.64h135.645V0H0V135.64z"
     id="path7" /><rect
     x="106.15"
     y="106.155"
     fill="#FFFFFF"
     width="25.565"
     height="25.776"
     id="rect9" /><path
     fill="#1E335C"
     d="M131.414,131.413h-24.749v-24.747h24.749V131.413z M132.48,105.6H105.6v26.88h26.881V105.6z"
     id="path11" /><path
     style="fill:none;stroke:#1e335c;stroke-width:1.66999996;stroke-miterlimit:10"
     inkscape:connector-curvature="0"
     id="path17"
     d="m 131.414,131.413 -24.749,0 0,-24.747 24.749,0 0,24.747 z m 1.066,-25.813 -26.88,0 0,26.88 26.881,0 0,-26.88 z"
     stroke-miterlimit="10" /><path
     style="fill:none;fill-rule:evenodd;stroke:#1e335c;stroke-width:0.963;stroke-linecap:round;stroke-linejoin:round;stroke-miterlimit:4;stroke-dasharray:none;stroke-opacity:1"
     d="m 120.09113,109.86757 c -1.64243,1.81139 -2.94781,6.84963 -3.63025,10.60246 -0.91123,-2.1125 -2.0686,-4.85587 -4.12647,-7.27182 1.38516,8.45427 -4.04519,9.00559 0.45217,15.18051 l 2.8e-4,0 c 1.55514,2.00072 5.49669,0.93058 7.78797,2.57221 1.73826,-1.2035 4.04408,-1.76719 5.02811,-3.27449 0.81888,-1.34821 1.00482,-2.90995 0.64168,-4.40843 -0.62176,-1.97232 -4.43508,-6.06783 1.30767,-11.10691 -3.4144,1.56422 -5.26984,3.94313 -6.32374,6.20292 -1.00385,-2.50977 -1.75033,-5.78886 -1.13752,-8.49645 z"
     id="path2043"
     inkscape:connector-curvature="0"
     sodipodi:nodetypes="ccccccccccc" /><path
     style="fill:none;fill-rule:evenodd;stroke:#009bde;stroke-width:0.93800002;stroke-linecap:round;stroke-linejoin:round;stroke-miterlimit:4;stroke-dasharray:none;stroke-opacity:1"
     d="m 113.06585,122.46701 c 1.69461,4.08468 -2.32638,3.97276 5.99934,7.2509 0.14716,0.10537 0.27274,0.13712 0.41186,0.16199 0.29385,0.11408 0.60118,0.23182 0.92435,0.35414 0.016,0.0105 0.0316,0.0205 0.0481,0.0317 0.004,-0.01 0.01,-0.0215 0.014,-0.0315 0.55105,-0.13005 2.43461,-1.03771 2.713,-2.2509 0.16989,-0.73885 -1.38875,-2.86813 -0.70744,-4.21628 -1.89043,1.20479 -1.53969,2.41294 -1.92868,3.84585 -0.0592,-0.0852 -0.12524,-0.16801 -0.19805,-0.24772 -0.58635,-0.56562 -1.62396,-2.28985 -1.87313,-3.71055 -0.27081,1.03792 -0.52448,2.03294 -0.555,2.98228 -0.90358,-0.60342 -2.21076,-1.33545 -4.84826,-4.16983 z"
     id="path2049"
     inkscape:connector-curvature="0" /><path
     style="fill:none;fill-rule:evenodd;stroke:#1e335c;stroke-width:5.26627588;stroke-linecap:round;stroke-linejoin:round;stroke-miterlimit:4;stroke-dasharray:none;stroke-opacity:1"
     d="M 65.852801,16.034821 C 56.919847,25.994799 49.820064,53.697708 46.108366,74.332749 41.15231,62.717108 34.857532,47.632609 23.665057,34.348439 31.198753,80.834492 1.6638195,83.865939 26.124348,117.8189 l 0.0015,0 c 8.458196,11.00103 29.895749,5.11683 42.357709,14.14338 9.454159,-6.61748 21.995199,-9.71696 27.347201,-18.00487 4.453782,-7.41318 5.465082,-16.000455 3.49001,-24.239879 C 95.939128,78.872665 75.198999,56.353386 106.43304,28.64586 87.862577,37.246769 77.771091,50.327274 72.039073,62.752794 66.579269,48.952752 62.519267,30.922581 65.852256,16.034821 Z"
     id="path2043-3"
     inkscape:connector-curvature="0"
     sodipodi:nodetypes="ccccccccccc" /><path
     style="fill:none;fill-rule:evenodd;stroke:#009bde;stroke-width:5.12956095;stroke-linecap:round;stroke-linejoin:round;stroke-miterlimit:4;stroke-dasharray:none;stroke-opacity:1"
     d="m 27.64326,85.313195 c 9.216751,22.459735 -12.652864,21.844345 32.629594,39.869285 0.800383,0.57938 1.483395,0.75395 2.240049,0.8907 1.598211,0.62727 3.269737,1.27467 5.027414,1.94725 0.08702,0.0577 0.171863,0.11278 0.26161,0.17432 0.02174,-0.055 0.05439,-0.11829 0.07614,-0.17322 2.997086,-0.71509 13.241512,-5.70587 14.755638,-12.37663 0.924009,-4.0626 -7.553222,-15.770494 -3.847671,-23.183338 -10.281791,6.624568 -8.374164,13.267618 -10.489828,21.146528 -0.321979,-0.46848 -0.681163,-0.92382 -1.077167,-1.3621 -3.189077,-3.11009 -8.832498,-12.590818 -10.187698,-20.402574 -1.472899,5.707035 -2.852577,11.178194 -3.01857,16.398154 -4.914447,-3.31792 -12.024023,-7.343 -26.369025,-22.927923 z"
     id="path2049-6"
     inkscape:connector-curvature="0" /></svg>