<?xml version="1.0" encoding="UTF-8" standalone="no"?>
<svg
   xmlns:dc="http://purl.org/dc/elements/1.1/"
   xmlns:cc="http://creativecommons.org/ns#"
   xmlns:rdf="http://www.w3.org/1999/02/22-rdf-syntax-ns#"
   xmlns:svg="http://www.w3.org/2000/svg"
   xmlns="http://www.w3.org/2000/svg"
   xmlns:sodipodi="http://sodipodi.sourceforge.net/DTD/sodipodi-0.dtd"
   xmlns:inkscape="http://www.inkscape.org/namespaces/inkscape"
   xml:space="preserve"
   enable-background="new 0 0 66.464 57.893"
   viewBox="0 0 64.000003 63.999998"
   height="64"
   width="64"
   y="0px"
   x="0px"
   id="Livello_1"
   version="1.1"
   inkscape:version="0.91 r13725"
   sodipodi:docname="nav_filter.svg"><sodipodi:namedview
     pagecolor="#ffffff"
     bordercolor="#666666"
     borderopacity="1"
     objecttolerance="10"
     gridtolerance="10"
     guidetolerance="10"
     inkscape:pageopacity="0"
     inkscape:pageshadow="2"
     inkscape:window-width="1559"
     inkscape:window-height="1176"
     id="namedview9"
     showgrid="false"
     inkscape:zoom="7.3749998"
     inkscape:cx="42.358831"
     inkscape:cy="24.165485"
     inkscape:window-x="41"
     inkscape:window-y="24"
     inkscape:window-maximized="1"
     inkscape:current-layer="Livello_1"
     showguides="false" /><metadata
     id="metadata25"><rdf:RDF><cc:Work
         rdf:about=""><dc:format>image/svg+xml</dc:format><dc:type
           rdf:resource="http://purl.org/dc/dcmitype/StillImage" /><dc:title></dc:title></cc:Work></rdf:RDF></metadata><defs
     id="defs23"><linearGradient
       id="linearGradient4120"
       y2="93.653999"
       gradientUnits="userSpaceOnUse"
       x2="-166.64"
       gradientTransform="matrix(0.36214,0,0,0.36214,113.9,16.411)"
       y1="99.667"
       x1="-172.64999"><stop
         id="stop3012"
         style="stop-color:#242424;stop-opacity:.99216"
         offset="0" /><stop
         id="stop3014"
         style="stop-color:#656565"
         offset="1" /></linearGradient><linearGradient
       id="linearGradient2769-669"
       y2="67.349998"
       gradientUnits="userSpaceOnUse"
       x2="201.87"
       gradientTransform="matrix(0.36214,0,0,0.36214,-25.898373,20.259103)"
       y1="146.14999"
       x1="277.57001"><stop
         id="stop3018"
         style="stop-color:#fff"
         offset="0" /><stop
         id="stop3020"
         style="stop-color:#fff;stop-opacity:0"
         offset="1" /></linearGradient><radialGradient
       id="radialGradient3341"
       gradientUnits="userSpaceOnUse"
       cy="8.3021002"
       cx="7.2646999"
       gradientTransform="matrix(0,1.574,-2.173,0,49.476,22.526)"
       r="20.98"><stop
         id="stop3024"
         style="stop-color:#fff;stop-opacity:0.4"
         offset="0" /><stop
         id="stop3026"
         style="stop-color:#fff;stop-opacity:0"
         offset="1" /></radialGradient><radialGradient
       id="radialGradient3338"
       gradientUnits="userSpaceOnUse"
       cy="13.078"
       cx="15.414"
       gradientTransform="matrix(2.7544,0,0,2.1405,-8.6166,1.48)"
       r="6.6561999"><stop
         id="stop3030"
         style="stop-color:#fff"
         offset="0" /><stop
         id="stop3032"
         style="stop-color:#fff;stop-opacity:.24762"
         offset="1" /></radialGradient><linearGradient
       id="linearGradient3333"
       y2="11.949"
       gradientUnits="userSpaceOnUse"
       x2="173.10001"
       gradientTransform="matrix(0.36214,0,0,0.36214,-25.499,20.515)"
       y1="75.319"
       x1="173.10001"><stop
         id="stop3036"
         style="stop-color:#343434;stop-opacity:.97647"
         offset="0" /><stop
         id="stop3038"
         style="stop-color:#939393"
         offset="1" /></linearGradient><linearGradient
       id="linearGradient3335"
       y2="4.5363002"
       gradientUnits="userSpaceOnUse"
       x2="41.485001"
       gradientTransform="matrix(0.36214,0,0,0.36214,21.475,23.24)"
       y1="68.292"
       x1="41.542"><stop
         id="stop3042"
         style="stop-color:#333"
         offset="0" /><stop
         id="stop3044"
         style="stop-color:#333;stop-opacity:.61224"
         offset="1" /></linearGradient><linearGradient
       id="linearGradient2960"
       y2="15.944"
       gradientUnits="userSpaceOnUse"
       x2="65.339996"
       gradientTransform="translate(-53.765,-0.11419)"
       y1="45.113998"
       x1="82.453003"><stop
         id="stop3048"
         style="stop-color:#666"
         offset="0" /><stop
         id="stop3050"
         style="stop-color:#808080"
         offset="1" /></linearGradient><filter
       style="color-interpolation-filters:sRGB"
       id="filter10131"><feGaussianBlur
         id="feGaussianBlur10133"
         stdDeviation="0.31195313" /></filter></defs><path
     style="fill:none;fill-rule:evenodd;stroke:#000000;stroke-width:1px;stroke-linecap:butt;stroke-linejoin:miter;stroke-opacity:1"
     d="m 14.205356,24.325411 0,17.673931"
     id="path4140"
     inkscape:connector-curvature="0"
     sodipodi:nodetypes="cc" /><rect
     style="opacity:1;fill:none;fill-opacity:1;fill-rule:evenodd;stroke:#0077ff;stroke-width:3.51331258;stroke-linecap:square;stroke-linejoin:miter;stroke-miterlimit:4.5;stroke-dasharray:none;stroke-dashoffset:0;stroke-opacity:1"
     id="rect4136"
     width="20.737938"
     height="19.835314"
     x="5.1662331"
     y="2.8605773" /><path
     style="fill:none;fill-rule:evenodd;stroke:#000000;stroke-width:1px;stroke-linecap:butt;stroke-linejoin:miter;stroke-opacity:1"
     d="m 14.22862,36.329032 23.430173,0"
     id="path4144"
     inkscape:connector-curvature="0"
     sodipodi:nodetypes="cc" /><rect
     style="opacity:1;fill:none;fill-opacity:1;fill-rule:evenodd;stroke:#0077ff;stroke-width:3.51331258;stroke-linecap:square;stroke-linejoin:miter;stroke-miterlimit:4.5;stroke-dasharray:none;stroke-dashoffset:0;stroke-opacity:1"
     id="rect4136-0"
     width="20.737938"
     height="19.835314"
     x="37.631035"
     y="26.421324" /><g
     id="g4224"
     transform="matrix(-1.55908,0,0,1.585834,99.868751,-34.437113)"><path
       id="path11112"
       style="fill:url(#linearGradient4120);fill-rule:evenodd;stroke:#333333;stroke-width:0.062;stroke-linecap:round;stroke-linejoin:round"
       d="m 46.565,43.367 16.193,15.07 -2.245,3.046 -16.134,-16.302 2.186,-1.814 z"
       inkscape:connector-curvature="0" /><path
       id="path11122"
       style="opacity:0.4;fill:url(#linearGradient2769-669);fill-rule:evenodd"
       d="m 60.19317,60.842359 -12.987065,-16.19309 15.710357,13.78848 -2.723292,2.40461 z"
       inkscape:connector-curvature="0" /><path
       id="path13082"
       style="fill:#3e3e3e"
       d="m 63.037,58.549 c 0.263,0.235 0.256,0.733 -0.02,1.306 -0.276,0.574 -0.779,1.135 -1.318,1.473 -0.539,0.338 -1.034,0.401 -1.296,0.164 -0.264,-0.234 -0.256,-0.732 0.02,-1.306 0.276,-0.573 0.778,-1.135 1.318,-1.473 0.539,-0.338 1.033,-0.4 1.296,-0.164 z"
       inkscape:connector-curvature="0" /><path
       id="path4452"
       style="fill:url(#radialGradient3341);fill-rule:evenodd"
       d="m 48.843,35.832 c 10e-4,5.979 -4.967,10.827 -11.095,10.827 -6.129,0 -11.097,-4.848 -11.096,-10.827 -0.001,-5.98 4.967,-10.828 11.096,-10.828 6.128,0 11.096,4.848 11.095,10.828 z"
       inkscape:connector-curvature="0" /><path
       id="path4462"
       style="opacity:0.6;fill:url(#radialGradient3338);fill-rule:evenodd"
       d="m 37.291,26.512 c -5.532,0 -10.012,4.008 -10.012,8.957 0,1.43 0.447,2.745 1.113,3.944 1.33,0.439 2.743,0.738 4.243,0.738 6.555,0 11.791,-4.621 12.195,-10.395 -1.839,-1.944 -4.472,-3.244 -7.539,-3.244 z"
       inkscape:connector-curvature="0" /><path
       id="path2298"
       style="fill:url(#linearGradient3333);stroke:url(#linearGradient3335);stroke-width:0.1;stroke-linecap:round;stroke-linejoin:round"
       d="m 37.504,25.021 c -6.814,0 -12.347,5.102 -12.347,11.385 0,6.283 5.533,11.385 12.347,11.385 6.814,0 12.347,-5.102 12.347,-11.385 0,-6.283 -5.533,-11.385 -12.347,-11.385 z m 0.147,0.747 c 6.099,0 11.057,4.562 11.057,10.185 0,5.624 -4.958,10.185 -11.057,10.185 -6.099,0 -11.045,-4.561 -11.045,-10.185 0,-5.623 4.946,-10.185 11.045,-10.185 z"
       inkscape:connector-curvature="0" /><path
       id="path4267"
       style="fill:url(#linearGradient2960);filter:url(#filter10131)"
       d="m 48.577,9.9205 c -17.92,0 -32.437,13.414 -32.437,29.938 0,16.524 14.517,29.938 32.437,29.938 17.92,0 32.469,-13.414 32.469,-29.938 0,-16.524 -14.549,-29.938 -32.469,-29.938 l 0,5e-4 z m 0.188,1.1565 c 16.841,0 30.531,12.596 30.531,28.125 0,15.528 -13.69,28.125 -30.531,28.125 -16.841,0 -30.5,-12.597 -30.5,-28.125 0,-15.529 13.659,-28.125 30.5,-28.125 z"
       transform="matrix(0.36214,0,0,0.36214,19.991,21.756)"
       inkscape:connector-curvature="0" /></g></svg>