<?xml version="1.0" encoding="utf-8"?>
<!-- Generator: Adobe Illustrator 16.0.4, SVG Export Plug-In . SVG Version: 6.00 Build 0)  -->
<!DOCTYPE svg PUBLIC "-//W3C//DTD SVG 1.1//EN" "http://www.w3.org/Graphics/SVG/1.1/DTD/svg11.dtd">
<svg version="1.1" id="Livello_1" xmlns="http://www.w3.org/2000/svg" xmlns:xlink="http://www.w3.org/1999/xlink" x="0px" y="0px"
	 width="28.552px" height="28.549px" viewBox="0 0 28.552 28.549" enable-background="new 0 0 28.552 28.549" xml:space="preserve">
<rect x="1.901" y="1.9" fill="#FFFFFF" width="25.816" height="25.814"/>
<g>
	<path fill="#009BDE" d="M9.676,14.275c0,1.336-1.084,2.42-2.419,2.42c-1.336,0-2.418-1.084-2.418-2.42
		c0-1.334,1.082-2.42,2.418-2.42C8.592,11.855,9.676,12.941,9.676,14.275"/>
	<path fill="#009BDE" d="M23.714,14.275c0,1.336-1.083,2.42-2.418,2.42c-1.336,0-2.419-1.084-2.419-2.42
		c0-1.334,1.083-2.42,2.419-2.42C22.631,11.855,23.714,12.941,23.714,14.275"/>
</g>
<path fill="#1E335C" d="M26.65,26.65H1.901V1.9H26.65V26.65z M27.717,0.834H0.835v26.881h26.882V0.834z"/>
<g>
	<path fill="none" stroke="#1E335C" stroke-width="1.67" stroke-miterlimit="10" d="M26.65,26.65H1.901V1.9H26.65V26.65z
		 M27.717,0.834H0.835v26.881h26.882V0.834z"/>
</g>
</svg>
