<?xml version="1.0" encoding="utf-8"?>
<!-- Generator: Adobe Illustrator 16.0.4, SVG Export Plug-In . SVG Version: 6.00 Build 0)  -->
<!DOCTYPE svg PUBLIC "-//W3C//DTD SVG 1.1//EN" "http://www.w3.org/Graphics/SVG/1.1/DTD/svg11.dtd">
<svg version="1.1" id="Livello_1" xmlns="http://www.w3.org/2000/svg" xmlns:xlink="http://www.w3.org/1999/xlink" x="0px" y="0px"
	 width="28.551px" height="28.55px" viewBox="0 0 28.551 28.55" enable-background="new 0 0 28.551 28.55" xml:space="preserve">
<rect x="1.901" y="1.9" fill="#FFFFFF" width="25.814" height="25.814"/>
<g>
	<path fill="#009BDE" d="M14.276,9.676c-1.336,0-2.417-1.085-2.417-2.42c0-1.334,1.081-2.419,2.417-2.419s2.419,1.085,2.419,2.419
		C16.695,8.591,15.612,9.676,14.276,9.676"/>
	<path fill="#009BDE" d="M14.276,23.713c-1.336,0-2.417-1.081-2.417-2.419c0-1.334,1.081-2.42,2.417-2.42s2.419,1.086,2.419,2.42
		C16.695,22.632,15.612,23.713,14.276,23.713"/>
</g>
<path fill="#1E335C" d="M26.65,26.65H1.901V1.9H26.65V26.65z M27.716,0.835H0.835v26.88h26.881V0.835z"/>
<g>
	<path fill="none" stroke="#1E335C" stroke-width="1.67" stroke-miterlimit="10" d="M26.65,26.65H1.901V1.9H26.65V26.65z
		 M27.716,0.835H0.835v26.88h26.881V0.835z"/>
</g>
</svg>
