<?xml version="1.0" encoding="utf-8"?>
<!-- Generator: Adobe Illustrator 16.0.4, SVG Export Plug-In . SVG Version: 6.00 Build 0)  -->
<!DOCTYPE svg PUBLIC "-//W3C//DTD SVG 1.1//EN" "http://www.w3.org/Graphics/SVG/1.1/DTD/svg11.dtd">
<svg version="1.1" id="Livello_1" xmlns="http://www.w3.org/2000/svg" xmlns:xlink="http://www.w3.org/1999/xlink" x="0px" y="0px"
	 width="28.551px" height="28.55px" viewBox="0 0 28.551 28.55" enable-background="new 0 0 28.551 28.55" xml:space="preserve">
<path fill="#FFFFFF" stroke="#000000" stroke-miterlimit="10" d="M27.716,27.715H1.9V1.901h25.815V27.715z"/>
<g>
	<path fill="#009BDE" d="M16.693,18.102c0,1.337-1.082,2.417-2.419,2.417c-1.335,0-2.418-1.08-2.418-2.417
		c0-1.336,1.083-2.418,2.418-2.418C15.611,15.684,16.693,16.766,16.693,18.102"/>
</g>
<path fill="#1E335C" d="M26.65,26.649H1.9V1.901h24.75V26.649z M27.716,0.835H0.835v26.88h26.881V0.835z"/>
<g>
	<path fill="none" stroke="#1E335C" stroke-width="1.67" stroke-miterlimit="10" d="M26.65,26.649H1.9V1.901h24.75V26.649z
		 M27.716,0.835H0.835v26.88h26.881V0.835z"/>
</g>
</svg>
