<?xml version="1.0" encoding="utf-8"?>
<!-- Generator: Adobe Illustrator 16.0.4, SVG Export Plug-In . SVG Version: 6.00 Build 0)  -->
<!DOCTYPE svg PUBLIC "-//W3C//DTD SVG 1.1//EN" "http://www.w3.org/Graphics/SVG/1.1/DTD/svg11.dtd">
<svg version="1.1" id="Livello_1" xmlns="http://www.w3.org/2000/svg" xmlns:xlink="http://www.w3.org/1999/xlink" x="0px" y="0px"
	 width="28.552px" height="28.549px" viewBox="0 0 28.552 28.549" enable-background="new 0 0 28.552 28.549" xml:space="preserve">
<rect x="1.9" y="1.9" fill="#FFFFFF" width="25.816" height="25.815"/>
<polygon fill="#009BDE" points="17.568,9.653 15.355,9.653 15.355,20.475 13.583,20.475 13.583,9.653 11.367,9.653 11.367,8.074 
	17.568,8.074 "/>
<path fill="#009BDE" d="M18.468,20.475h-1.771l2.657-12.401h1.772l2.656,12.401h-1.771l-0.664-3.1h-2.215L18.468,20.475z
	 M20.239,10.731l-0.885,5.316h1.772L20.239,10.731z"/>
<path fill="#1E335C" d="M26.65,26.651H1.9V1.9h24.75V26.651z M27.717,0.835H0.835v26.88h26.882V0.835z"/>
<g>
	<path fill="none" stroke="#1E335C" stroke-width="1.67" stroke-miterlimit="10" d="M26.65,26.651H1.9V1.9h24.75V26.651z
		 M27.717,0.835H0.835v26.88h26.882V0.835z"/>
</g>
<g>
	<path fill="#009BDE" d="M7.5,20.475H4.766V8.074h2.748c2.595,0,3.543,0.941,3.543,3.544v4.873
		C11.057,19.127,10.144,20.475,7.5,20.475 M7.479,9.403H6.537v9.744h0.977c1.874,0,1.771-1.275,1.771-3.1v-3.986
		C9.285,10.364,9.235,9.403,7.479,9.403"/>
</g>
</svg>
