<?xml version="1.0" encoding="utf-8"?>
<!-- Generator: Adobe Illustrator 16.0.4, SVG Export Plug-In . SVG Version: 6.00 Build 0)  -->
<!DOCTYPE svg PUBLIC "-//W3C//DTD SVG 1.1//EN" "http://www.w3.org/Graphics/SVG/1.1/DTD/svg11.dtd">
<svg version="1.1" id="Livello_1" xmlns="http://www.w3.org/2000/svg" xmlns:xlink="http://www.w3.org/1999/xlink" x="0px" y="0px"
	 width="28.551px" height="28.55px" viewBox="0 0 28.551 28.55" enable-background="new 0 0 28.551 28.55" xml:space="preserve">
<rect x="1.386" y="1.391" fill="#FFFFFF" width="25.565" height="25.776"/>
<path fill="#1E335C" d="M26.649,26.648H1.9V1.901h24.749V26.648z M27.716,0.835H0.835v26.88h26.881V0.835z"/>
<g>
	<path fill="#009BDE" d="M28.55,17.383h-5.818c0.142-0.598,0.219-1.221,0.219-1.861c0-4.465-3.618-8.082-8.082-8.082
		c-4.463,0-8.081,3.617-8.081,8.082c0,0.641,0.077,1.264,0.218,1.861H1.386v1.72h8.317c-0.706-1.018-1.123-2.25-1.123-3.581
		c0-3.474,2.815-6.288,6.288-6.288s6.289,2.814,6.289,6.288c0,1.331-0.418,2.563-1.123,3.581h8.474"/>
	<path fill="none" stroke="#1E335C" stroke-width="1.67" stroke-miterlimit="10" d="M26.649,26.648H1.9V1.901h24.749V26.648z
		 M27.716,0.835H0.835v26.88h26.881V0.835z"/>
</g>
</svg>
