<?xml version="1.0" encoding="UTF-8" standalone="no"?>
<!-- Generator: Adobe Illustrator 16.0.4, SVG Export Plug-In . SVG Version: 6.00 Build 0)  -->

<svg
   xmlns:dc="http://purl.org/dc/elements/1.1/"
   xmlns:cc="http://creativecommons.org/ns#"
   xmlns:rdf="http://www.w3.org/1999/02/22-rdf-syntax-ns#"
   xmlns:svg="http://www.w3.org/2000/svg"
   xmlns="http://www.w3.org/2000/svg"
   xmlns:sodipodi="http://sodipodi.sourceforge.net/DTD/sodipodi-0.dtd"
   xmlns:inkscape="http://www.inkscape.org/namespaces/inkscape"
   version="1.1"
   id="Livello_1"
   x="0px"
   y="0px"
   width="28.551px"
   height="28.55px"
   viewBox="0 0 28.551 28.55"
   enable-background="new 0 0 28.551 28.55"
   xml:space="preserve"
   inkscape:version="0.91 r13725"
   sodipodi:docname="small_kiln.svg"><metadata
     id="metadata17"><rdf:RDF><cc:Work
         rdf:about=""><dc:format>image/svg+xml</dc:format><dc:type
           rdf:resource="http://purl.org/dc/dcmitype/StillImage" /><dc:title></dc:title></cc:Work></rdf:RDF></metadata><defs
     id="defs15" /><sodipodi:namedview
     pagecolor="#ffffff"
     bordercolor="#666666"
     borderopacity="1"
     objecttolerance="10"
     gridtolerance="10"
     guidetolerance="10"
     inkscape:pageopacity="0"
     inkscape:pageshadow="2"
     inkscape:window-width="1879"
     inkscape:window-height="1056"
     id="namedview13"
     showgrid="false"
     inkscape:zoom="16.5324"
     inkscape:cx="16.727388"
     inkscape:cy="2.5949265"
     inkscape:window-x="41"
     inkscape:window-y="24"
     inkscape:window-maximized="1"
     inkscape:current-layer="Livello_1" /><rect
     x="1.386"
     y="1.391"
     fill="#FFFFFF"
     width="25.565"
     height="25.776"
     id="rect3" /><path
     fill="#1E335C"
     d="M26.649,26.648H1.9V1.901h24.749V26.648z M27.716,0.835H0.835v26.88h26.881V0.835z"
     id="path5" /><path
     style="fill:none;stroke:#1e335c;stroke-width:1.66999996;stroke-miterlimit:10"
     inkscape:connector-curvature="0"
     id="path11"
     d="m 26.649,26.648 -24.749,0 0,-24.747 24.749,0 0,24.747 z m 1.067,-25.813 -26.881,0 0,26.88 26.881,0 0,-26.88 z"
     stroke-miterlimit="10" /><path
     style="fill:none;fill-rule:evenodd;stroke:#1e335c;stroke-width:0.963;stroke-linecap:round;stroke-linejoin:round;stroke-miterlimit:4;stroke-dasharray:none;stroke-opacity:1"
     d="m 14.845786,5.2453471 c -1.64243,1.81139 -2.94781,6.8496299 -3.63025,10.6024599 -0.91123,-2.1125 -2.0685996,-4.85587 -4.1264695,-7.2718199 1.38516,8.4542699 -4.04519,9.0055899 0.45217,15.1805099 l 2.8e-4,0 c 1.5551399,2.00072 5.4966895,0.93058 7.7879695,2.57221 1.73826,-1.2035 4.04408,-1.76719 5.02811,-3.27449 0.81888,-1.34821 1.00482,-2.90995 0.64168,-4.40843 -0.62176,-1.97232 -4.43508,-6.06783 1.30767,-11.1069099 -3.4144,1.56422 -5.26984,3.9431299 -6.32374,6.2029199 -1.00385,-2.50977 -1.75033,-5.7888599 -1.13752,-8.4964499 z"
     id="path2043"
     inkscape:connector-curvature="0"
     sodipodi:nodetypes="ccccccccccc" /><path
     style="fill:none;fill-rule:evenodd;stroke:#009bde;stroke-width:0.938;stroke-linecap:round;stroke-linejoin:round;stroke-miterlimit:4;stroke-dasharray:none;stroke-opacity:1"
     d="m 7.8205065,17.844787 c 1.6946099,4.08468 -2.32638,3.97276 5.9993395,7.2509 0.14716,0.10537 0.27274,0.13712 0.41186,0.16199 0.29385,0.11408 0.60118,0.23182 0.92435,0.35414 0.016,0.0105 0.0316,0.0205 0.0481,0.0317 0.004,-0.01 0.01,-0.0215 0.014,-0.0315 0.55105,-0.13005 2.43461,-1.03771 2.713,-2.2509 0.16989,-0.73885 -1.38875,-2.86813 -0.70744,-4.21628 -1.89043,1.20479 -1.53969,2.41294 -1.92868,3.84585 -0.0592,-0.0852 -0.12524,-0.16801 -0.19805,-0.24772 -0.58635,-0.56562 -1.62396,-2.28985 -1.87313,-3.71055 -0.27081,1.03792 -0.52448,2.03294 -0.555,2.98228 -0.90358,-0.60342 -2.21076,-1.33545 -4.8482595,-4.16983 z"
     id="path2049"
     inkscape:connector-curvature="0" /></svg>