<?xml version="1.0" encoding="utf-8"?>
<!-- Generator: Adobe Illustrator 16.0.4, SVG Export Plug-In . SVG Version: 6.00 Build 0)  -->
<!DOCTYPE svg PUBLIC "-//W3C//DTD SVG 1.1//EN" "http://www.w3.org/Graphics/SVG/1.1/DTD/svg11.dtd">
<svg version="1.1" id="Livello_1" xmlns="http://www.w3.org/2000/svg" xmlns:xlink="http://www.w3.org/1999/xlink" x="0px" y="0px"
	 width="28.552px" height="28.55px" viewBox="0 0 28.552 28.55" enable-background="new 0 0 28.552 28.55" xml:space="preserve">
<rect x="1.901" y="1.901" fill="#FFFFFF" width="25.816" height="25.813"/>
<g>
	<path fill="#009BDE" d="M16.653,18.102c0,1.337-1.082,2.417-2.42,2.417c-1.334,0-2.416-1.08-2.416-2.417
		c0-1.336,1.082-2.418,2.416-2.418C15.571,15.684,16.653,16.766,16.653,18.102"/>
	<path fill="#009BDE" d="M9.634,12.584c0,1.338-1.084,2.417-2.419,2.417c-1.336,0-2.418-1.079-2.418-2.417
		c0-1.337,1.082-2.42,2.418-2.42C8.55,10.164,9.634,11.247,9.634,12.584"/>
	<path fill="#009BDE" d="M23.672,12.584c0,1.338-1.084,2.417-2.419,2.417c-1.336,0-2.419-1.079-2.419-2.417
		c0-1.337,1.083-2.42,2.419-2.42C22.588,10.164,23.672,11.247,23.672,12.584"/>
</g>
<path fill="#1E335C" d="M26.651,26.649H1.901V1.901h24.75V26.649z M27.717,0.835H0.834v26.88h26.883V0.835z"/>
<g>
	<path fill="none" stroke="#1E335C" stroke-width="1.67" stroke-miterlimit="10" d="M26.651,26.649H1.901V1.901h24.75V26.649z
		 M27.717,0.835H0.834v26.88h26.883V0.835z"/>
</g>
</svg>
