<?xml version="1.0" encoding="UTF-8" standalone="no"?>
<!-- Generator: Adobe Illustrator 16.0.4, SVG Export Plug-In . SVG Version: 6.00 Build 0)  -->

<svg
   xmlns:dc="http://purl.org/dc/elements/1.1/"
   xmlns:cc="http://creativecommons.org/ns#"
   xmlns:rdf="http://www.w3.org/1999/02/22-rdf-syntax-ns#"
   xmlns:svg="http://www.w3.org/2000/svg"
   xmlns="http://www.w3.org/2000/svg"
   xmlns:sodipodi="http://sodipodi.sourceforge.net/DTD/sodipodi-0.dtd"
   xmlns:inkscape="http://www.inkscape.org/namespaces/inkscape"
   version="1.1"
   id="Livello_1"
   x="0px"
   y="0px"
   width="64"
   height="64"
   viewBox="0 0 64.000003 63.999998"
   enable-background="new 0 0 66.464 57.893"
   xml:space="preserve"
   inkscape:version="0.91 r13725"
   sodipodi:docname="smooth.svg"
   inkscape:export-filename="/home/daniele/misura4/misura.client/misura/client/art/icon.svg.png"
   inkscape:export-xdpi="90"
   inkscape:export-ydpi="90"><metadata
     id="metadata25"><rdf:RDF><cc:Work
         rdf:about=""><dc:format>image/svg+xml</dc:format><dc:type
           rdf:resource="http://purl.org/dc/dcmitype/StillImage" /><dc:title></dc:title></cc:Work></rdf:RDF></metadata><defs
     id="defs23" /><sodipodi:namedview
     pagecolor="#ffffff"
     bordercolor="#666666"
     borderopacity="1"
     objecttolerance="10"
     gridtolerance="10"
     guidetolerance="10"
     inkscape:pageopacity="0"
     inkscape:pageshadow="2"
     inkscape:window-width="1879"
     inkscape:window-height="1056"
     id="namedview21"
     showgrid="false"
     inkscape:zoom="8.1529716"
     inkscape:cx="25.628744"
     inkscape:cy="26.508511"
     inkscape:window-x="41"
     inkscape:window-y="24"
     inkscape:window-maximized="1"
     inkscape:current-layer="Livello_1" /><path
     style="fill:none;fill-rule:evenodd;stroke:#000000;stroke-width:3;stroke-linecap:butt;stroke-linejoin:miter;stroke-opacity:1;stroke-miterlimit:8;stroke-dasharray:none"
     d="M 5.7647693,57.131337 17.725288,47.114543 19.089974,27.063287 33.858109,22.39268 40.331835,7.5963823 61.572642,11.135837"
     id="path4267"
     inkscape:connector-curvature="0"
     sodipodi:nodetypes="cccccc" /><path
     style="fill:none;fill-rule:evenodd;stroke:#ff0000;stroke-width:4;stroke-linecap:square;stroke-linejoin:miter;stroke-opacity:1;stroke-miterlimit:4.5;stroke-dasharray:none;stroke-dashoffset:0"
     d="m 3.1244627,52.303329 c 0,0 7.7899423,-5.695518 11.9605193,-10.016794 4.170577,-4.321276 5.794342,-8.519766 9.459894,-13.182595 3.665552,-4.662829 5.654681,-6.615357 9.493984,-10.067412 4.00325,-3.599467 8.801657,-6.161678 14.323625,-9.1541838 5.521968,-2.9925061 12.90029,-2.4706236 12.90029,-2.4706236"
     id="path4267-3"
     inkscape:connector-curvature="0"
     sodipodi:nodetypes="czzszc" /><path
     style="opacity:1;fill:#000000;fill-opacity:1;fill-rule:evenodd;stroke:#7a7a7a;stroke-width:4;stroke-linecap:butt;stroke-linejoin:miter;stroke-miterlimit:4;stroke-dasharray:none;stroke-dashoffset:0;stroke-opacity:1"
     id="path4304"
     sodipodi:type="arc"
     sodipodi:cx="19.747402"
     sodipodi:cy="26.406343"
     sodipodi:rx="1.8179524"
     sodipodi:ry="1.6339705"
     sodipodi:start="0"
     sodipodi:end="6.26835"
     sodipodi:open="true"
     d="m 21.565355,26.406343 a 1.8179524,1.6339705 0 0 1 -1.81121,1.63396 1.8179524,1.6339705 0 0 1 -1.824645,-1.621839 1.8179524,1.6339705 0 0 1 1.797675,-1.64599 1.8179524,1.6339705 0 0 1 1.83798,1.60963" /><path
     style="opacity:1;fill:#000000;fill-opacity:1;fill-rule:evenodd;stroke:#7a7a7a;stroke-width:4;stroke-linecap:butt;stroke-linejoin:miter;stroke-miterlimit:4;stroke-dasharray:none;stroke-dashoffset:0;stroke-opacity:1"
     id="path4304-6"
     sodipodi:type="arc"
     sodipodi:cx="34.220654"
     sodipodi:cy="22.420067"
     sodipodi:rx="1.8179524"
     sodipodi:ry="1.6339705"
     sodipodi:start="0"
     sodipodi:end="6.26835"
     d="m 36.038606,22.420067 a 1.8179524,1.6339705 0 0 1 -1.81121,1.633959 1.8179524,1.6339705 0 0 1 -1.824645,-1.621839 1.8179524,1.6339705 0 0 1 1.797676,-1.64599 1.8179524,1.6339705 0 0 1 1.837979,1.60963"
     sodipodi:open="true" /><path
     style="opacity:1;fill:#000000;fill-opacity:1;fill-rule:evenodd;stroke:#7a7a7a;stroke-width:4;stroke-linecap:butt;stroke-linejoin:miter;stroke-miterlimit:4;stroke-dasharray:none;stroke-dashoffset:0;stroke-opacity:1"
     id="path4304-6-7"
     sodipodi:type="arc"
     sodipodi:cx="39.985424"
     sodipodi:cy="7.5788517"
     sodipodi:rx="1.8179524"
     sodipodi:ry="1.6339705"
     sodipodi:start="0"
     sodipodi:end="6.26835"
     sodipodi:open="true"
     d="M 41.803376,7.5788517 A 1.8179524,1.6339705 0 0 1 39.992166,9.212811 1.8179524,1.6339705 0 0 1 38.167522,7.5909718 1.8179524,1.6339705 0 0 1 39.965197,5.9449823 1.8179524,1.6339705 0 0 1 41.803176,7.5546121" /><path
     style="opacity:1;fill:#000000;fill-opacity:1;fill-rule:evenodd;stroke:#7a7a7a;stroke-width:4;stroke-linecap:butt;stroke-linejoin:miter;stroke-miterlimit:4;stroke-dasharray:none;stroke-dashoffset:0;stroke-opacity:1"
     id="path4304-6-5"
     sodipodi:type="arc"
     sodipodi:cx="60.100788"
     sodipodi:cy="10.890528"
     sodipodi:rx="1.8179524"
     sodipodi:ry="1.6339705"
     sodipodi:start="0"
     sodipodi:end="6.26835"
     sodipodi:open="true"
     d="m 61.918741,10.890528 a 1.8179524,1.6339705 0 0 1 -1.81121,1.633959 1.8179524,1.6339705 0 0 1 -1.824645,-1.621839 1.8179524,1.6339705 0 0 1 1.797675,-1.6459896 1.8179524,1.6339705 0 0 1 1.837979,1.6096296" /><path
     style="opacity:1;fill:#000000;fill-opacity:1;fill-rule:evenodd;stroke:#7a7a7a;stroke-width:4;stroke-linecap:butt;stroke-linejoin:miter;stroke-miterlimit:4;stroke-dasharray:none;stroke-dashoffset:0;stroke-opacity:1"
     id="path4304-6-3"
     sodipodi:type="arc"
     sodipodi:cx="17.539618"
     sodipodi:cy="46.950996"
     sodipodi:rx="1.8179524"
     sodipodi:ry="1.6339705"
     sodipodi:start="0"
     sodipodi:end="6.26835"
     sodipodi:open="true"
     d="m 19.35757,46.950996 a 1.8179524,1.6339705 0 0 1 -1.81121,1.63396 1.8179524,1.6339705 0 0 1 -1.824645,-1.621839 1.8179524,1.6339705 0 0 1 1.797676,-1.64599 1.8179524,1.6339705 0 0 1 1.837979,1.60963" /><path
     style="opacity:1;fill:#000000;fill-opacity:1;fill-rule:evenodd;stroke:#7a7a7a;stroke-width:4;stroke-linecap:butt;stroke-linejoin:miter;stroke-miterlimit:4;stroke-dasharray:none;stroke-dashoffset:0;stroke-opacity:1"
     id="path4304-6-56"
     sodipodi:type="arc"
     sodipodi:cx="6.1327343"
     sodipodi:cy="56.886024"
     sodipodi:rx="1.8179524"
     sodipodi:ry="1.6339705"
     sodipodi:start="0"
     sodipodi:end="6.26835"
     sodipodi:open="true"
     d="m 7.9506867,56.886024 a 1.8179524,1.6339705 0 0 1 -1.8112099,1.63396 1.8179524,1.6339705 0 0 1 -1.8246449,-1.621839 1.8179524,1.6339705 0 0 1 1.7976754,-1.64599 1.8179524,1.6339705 0 0 1 1.8379793,1.60963" /></svg>