<?xml version="1.0" encoding="utf-8"?>
<!-- Generator: Adobe Illustrator 16.0.4, SVG Export Plug-In . SVG Version: 6.00 Build 0)  -->
<!DOCTYPE svg PUBLIC "-//W3C//DTD SVG 1.1//EN" "http://www.w3.org/Graphics/SVG/1.1/DTD/svg11.dtd">
<svg version="1.1" id="Livello_1" xmlns="http://www.w3.org/2000/svg" xmlns:xlink="http://www.w3.org/1999/xlink" x="0px" y="0px"
	 width="135.646px" height="135.643px" viewBox="0 0 135.646 135.643" enable-background="new 0 0 135.646 135.643"
	 xml:space="preserve">
<rect x="106.893" y="107.007" fill="#FFFFFF" width="25.814" height="25.814"/>
<g>
	<path fill="#009BDE" d="M119.268,114.782c-1.336,0-2.417-1.085-2.417-2.42c0-1.334,1.081-2.419,2.417-2.419
		s2.419,1.085,2.419,2.419C121.687,113.697,120.604,114.782,119.268,114.782"/>
	<path fill="#009BDE" d="M119.268,128.819c-1.336,0-2.417-1.081-2.417-2.419c0-1.334,1.081-2.42,2.417-2.42s2.419,1.086,2.419,2.42
		C121.687,127.738,120.604,128.819,119.268,128.819"/>
</g>
<path fill="#1E335C" d="M131.642,131.757h-24.749v-24.75h24.749V131.757z M132.707,105.941h-26.881v26.88h26.881V105.941z"/>
<g>
	<path fill="none" stroke="#1E335C" stroke-width="1.67" stroke-miterlimit="10" d="M131.642,131.757h-24.749v-24.75h24.749V131.757
		z M132.707,105.941h-26.881v26.88h26.881V105.941z"/>
</g>
<path fill="#1E335C" d="M4.783,4.782h126.081V130.86H4.783V4.782z M0,135.643h135.646V0H0V135.643z"/>
<rect x="45.313" y="22.911" fill="#004987" width="45.017" height="90.028"/>
<g>
	<path fill="#009BDE" d="M75.885,111.732c0,4.452-3.609,8.062-8.061,8.062c-4.452,0-8.063-3.609-8.063-8.062
		s3.611-8.062,8.063-8.062C72.275,103.67,75.885,107.28,75.885,111.732"/>
	<path fill="#009BDE" d="M75.885,24.116c0,4.454-3.609,8.063-8.061,8.063c-4.452,0-8.063-3.609-8.063-8.063
		c0-4.451,3.611-8.061,8.063-8.061C72.275,16.056,75.885,19.665,75.885,24.116"/>
</g>
</svg>
