<?xml version="1.0" encoding="UTF-8" standalone="no"?>
<!-- Created with Inkscape (http://www.inkscape.org/) -->

<svg
   xmlns:dc="http://purl.org/dc/elements/1.1/"
   xmlns:cc="http://creativecommons.org/ns#"
   xmlns:rdf="http://www.w3.org/1999/02/22-rdf-syntax-ns#"
   xmlns:svg="http://www.w3.org/2000/svg"
   xmlns="http://www.w3.org/2000/svg"
   xmlns:sodipodi="http://sodipodi.sourceforge.net/DTD/sodipodi-0.dtd"
   xmlns:inkscape="http://www.inkscape.org/namespaces/inkscape"
   width="330"
   height="280"
   id="svg2"
   version="1.1"
   inkscape:version="0.91 r13725"
   sodipodi:docname="inplane.svg"
   inkscape:export-filename="/home/daniele/misura4/thegram/thegram/plugin/inpl.png"
   inkscape:export-xdpi="145.16129"
   inkscape:export-ydpi="145.16129">
  <defs
     id="defs4">
    <marker
       inkscape:stockid="Arrow1Mstart"
       orient="auto"
       refY="0"
       refX="0"
       id="Arrow1Mstart"
       style="overflow:visible"
       inkscape:isstock="true">
      <path
         id="path4321"
         d="M 0,0 5,-5 -12.5,0 5,5 0,0 Z"
         style="fill-rule:evenodd;stroke:#000000;stroke-width:1pt"
         transform="matrix(0.4,0,0,0.4,4,0)"
         inkscape:connector-curvature="0" />
    </marker>
    <marker
       inkscape:stockid="Arrow1Lstart"
       orient="auto"
       refY="0"
       refX="0"
       id="Arrow1Lstart"
       style="overflow:visible">
      <path
         id="path3785"
         d="M 0,0 5,-5 -12.5,0 5,5 0,0 Z"
         style="fill-rule:evenodd;stroke:#000000;stroke-width:1pt"
         transform="matrix(0.8,0,0,0.8,10,0)"
         inkscape:connector-curvature="0" />
    </marker>
    <marker
       inkscape:stockid="Arrow1Lend"
       orient="auto"
       refY="0"
       refX="0"
       id="Arrow1Lend"
       style="overflow:visible">
      <path
         id="path3788"
         d="M 0,0 5,-5 -12.5,0 5,5 0,0 Z"
         style="fill-rule:evenodd;stroke:#000000;stroke-width:1pt"
         transform="matrix(-0.8,0,0,-0.8,-10,0)"
         inkscape:connector-curvature="0" />
    </marker>
    <marker
       inkscape:stockid="Arrow1Lstart"
       orient="auto"
       refY="0"
       refX="0"
       id="Arrow1Lstart-9"
       style="overflow:visible">
      <path
         inkscape:connector-curvature="0"
         id="path3785-6"
         d="M 0,0 5,-5 -12.5,0 5,5 0,0 Z"
         style="fill-rule:evenodd;stroke:#000000;stroke-width:1pt"
         transform="matrix(0.8,0,0,0.8,10,0)" />
    </marker>
    <marker
       inkscape:stockid="Arrow1Lend"
       orient="auto"
       refY="0"
       refX="0"
       id="Arrow1Lend-6"
       style="overflow:visible">
      <path
         inkscape:connector-curvature="0"
         id="path3788-1"
         d="M 0,0 5,-5 -12.5,0 5,5 0,0 Z"
         style="fill-rule:evenodd;stroke:#000000;stroke-width:1pt"
         transform="matrix(-0.8,0,0,-0.8,-10,0)" />
    </marker>
    <marker
       inkscape:stockid="Arrow1Lstart"
       orient="auto"
       refY="0"
       refX="0"
       id="Arrow1Lstart-3"
       style="overflow:visible">
      <path
         inkscape:connector-curvature="0"
         id="path3785-0"
         d="M 0,0 5,-5 -12.5,0 5,5 0,0 Z"
         style="fill-rule:evenodd;stroke:#000000;stroke-width:1pt"
         transform="matrix(0.8,0,0,0.8,10,0)" />
    </marker>
    <marker
       inkscape:stockid="Arrow1Lend"
       orient="auto"
       refY="0"
       refX="0"
       id="Arrow1Lend-7"
       style="overflow:visible">
      <path
         inkscape:connector-curvature="0"
         id="path3788-6"
         d="M 0,0 5,-5 -12.5,0 5,5 0,0 Z"
         style="fill-rule:evenodd;stroke:#000000;stroke-width:1pt"
         transform="matrix(-0.8,0,0,-0.8,-10,0)" />
    </marker>
    <marker
       inkscape:stockid="Arrow1Lend"
       orient="auto"
       refY="0"
       refX="0"
       id="Arrow1Lend-4"
       style="overflow:visible">
      <path
         inkscape:connector-curvature="0"
         id="path3788-2"
         d="M 0,0 5,-5 -12.5,0 5,5 0,0 Z"
         style="fill-rule:evenodd;stroke:#000000;stroke-width:1pt"
         transform="matrix(-0.8,0,0,-0.8,-10,0)" />
    </marker>
    <marker
       inkscape:stockid="Arrow1Lstart"
       orient="auto"
       refY="0"
       refX="0"
       id="Arrow1Lstart-3-7"
       style="overflow:visible">
      <path
         inkscape:connector-curvature="0"
         id="path3785-0-1"
         d="M 0,0 5,-5 -12.5,0 5,5 0,0 Z"
         style="fill-rule:evenodd;stroke:#000000;stroke-width:1pt"
         transform="matrix(0.8,0,0,0.8,10,0)" />
    </marker>
    <marker
       inkscape:stockid="Arrow1Lend"
       orient="auto"
       refY="0"
       refX="0"
       id="Arrow1Lend-1"
       style="overflow:visible">
      <path
         inkscape:connector-curvature="0"
         id="path3788-20"
         d="M 0,0 5,-5 -12.5,0 5,5 0,0 Z"
         style="fill-rule:evenodd;stroke:#000000;stroke-width:1pt"
         transform="matrix(-0.8,0,0,-0.8,-10,0)" />
    </marker>
    <marker
       inkscape:stockid="Arrow1Lstart"
       orient="auto"
       refY="0"
       refX="0"
       id="marker5606"
       style="overflow:visible">
      <path
         inkscape:connector-curvature="0"
         id="path5608"
         d="M 0,0 5,-5 -12.5,0 5,5 0,0 Z"
         style="fill-rule:evenodd;stroke:#000000;stroke-width:1pt"
         transform="matrix(0.8,0,0,0.8,10,0)" />
    </marker>
    <marker
       inkscape:stockid="Arrow1Lend"
       orient="auto"
       refY="0"
       refX="0"
       id="marker5610"
       style="overflow:visible">
      <path
         inkscape:connector-curvature="0"
         id="path5612"
         d="M 0,0 5,-5 -12.5,0 5,5 0,0 Z"
         style="fill-rule:evenodd;stroke:#000000;stroke-width:1pt"
         transform="matrix(-0.8,0,0,-0.8,-10,0)" />
    </marker>
    <marker
       inkscape:stockid="Arrow1Lstart"
       orient="auto"
       refY="0"
       refX="0"
       id="Arrow1Lstart-2"
       style="overflow:visible">
      <path
         inkscape:connector-curvature="0"
         id="path3785-5"
         d="M 0,0 5,-5 -12.5,0 5,5 0,0 Z"
         style="fill-rule:evenodd;stroke:#000000;stroke-width:1pt"
         transform="matrix(0.8,0,0,0.8,10,0)" />
    </marker>
    <marker
       inkscape:stockid="Arrow1Lend"
       orient="auto"
       refY="0"
       refX="0"
       id="Arrow1Lend-15"
       style="overflow:visible">
      <path
         inkscape:connector-curvature="0"
         id="path3788-3"
         d="M 0,0 5,-5 -12.5,0 5,5 0,0 Z"
         style="fill-rule:evenodd;stroke:#000000;stroke-width:1pt"
         transform="matrix(-0.8,0,0,-0.8,-10,0)" />
    </marker>
    <marker
       inkscape:stockid="Arrow1Lstart"
       orient="auto"
       refY="0"
       refX="0"
       id="Arrow1Lstart-3-2"
       style="overflow:visible">
      <path
         inkscape:connector-curvature="0"
         id="path3785-0-9"
         d="M 0,0 5,-5 -12.5,0 5,5 0,0 Z"
         style="fill-rule:evenodd;stroke:#000000;stroke-width:1pt"
         transform="matrix(0.8,0,0,0.8,10,0)" />
    </marker>
    <marker
       inkscape:stockid="Arrow1Lend"
       orient="auto"
       refY="0"
       refX="0"
       id="Arrow1Lend-12"
       style="overflow:visible">
      <path
         id="path3788-7"
         d="M 0,0 5,-5 -12.5,0 5,5 0,0 Z"
         style="fill-rule:evenodd;stroke:#000000;stroke-width:1pt"
         transform="matrix(-0.8,0,0,-0.8,-10,0)"
         inkscape:connector-curvature="0" />
    </marker>
    <marker
       inkscape:stockid="Arrow1Lstart"
       orient="auto"
       refY="0"
       refX="0"
       id="marker4767"
       style="overflow:visible">
      <path
         inkscape:connector-curvature="0"
         id="path4769"
         d="M 0,0 5,-5 -12.5,0 5,5 0,0 Z"
         style="fill-rule:evenodd;stroke:#000000;stroke-width:1pt"
         transform="matrix(0.8,0,0,0.8,10,0)" />
    </marker>
    <marker
       inkscape:stockid="Arrow1Lend"
       orient="auto"
       refY="0"
       refX="0"
       id="marker4771"
       style="overflow:visible">
      <path
         id="path4773"
         d="M 0,0 5,-5 -12.5,0 5,5 0,0 Z"
         style="fill-rule:evenodd;stroke:#000000;stroke-width:1pt"
         transform="matrix(-0.8,0,0,-0.8,-10,0)"
         inkscape:connector-curvature="0" />
    </marker>
  </defs>
  <sodipodi:namedview
     id="base"
     pagecolor="#ffffff"
     bordercolor="#666666"
     borderopacity="1.0"
     inkscape:pageopacity="0.0"
     inkscape:pageshadow="2"
     inkscape:zoom="1.4"
     inkscape:cx="-96.428571"
     inkscape:cy="105.82925"
     inkscape:document-units="px"
     inkscape:current-layer="layer1"
     showgrid="false"
     showguides="true"
     inkscape:guide-bbox="true"
     inkscape:window-width="1879"
     inkscape:window-height="1056"
     inkscape:window-x="41"
     inkscape:window-y="24"
     inkscape:window-maximized="1">
    <inkscape:grid
       type="xygrid"
       id="grid3755"
       empspacing="5"
       visible="true"
       enabled="true"
       snapvisiblegridlinesonly="true" />
    <sodipodi:guide
       orientation="1,0"
       position="-125,504.28571"
       id="guide3775" />
    <sodipodi:guide
       orientation="1,0"
       position="-142.85714,446.42857"
       id="guide6116" />
  </sodipodi:namedview>
  <metadata
     id="metadata7">
    <rdf:RDF>
      <cc:Work
         rdf:about="">
        <dc:format>image/svg+xml</dc:format>
        <dc:type
           rdf:resource="http://purl.org/dc/dcmitype/StillImage" />
        <dc:title></dc:title>
      </cc:Work>
    </rdf:RDF>
  </metadata>
  <g
     inkscape:label="Livello 1"
     inkscape:groupmode="layer"
     id="layer1"
     transform="translate(0,-772.36218)">
    <path
       sodipodi:type="arc"
       style="fill:none;stroke:#ff0000;stroke-width:2;stroke-linecap:butt;stroke-linejoin:round;stroke-miterlimit:4;stroke-dasharray:none;stroke-dashoffset:0;stroke-opacity:1"
       id="path2985"
       sodipodi:cx="149.28572"
       sodipodi:cy="867.36218"
       sodipodi:rx="141.1879"
       sodipodi:ry="35.47361"
       d="M 290.47362,867.36218 A 141.1879,35.47361 0 0 1 149.80945,902.83555 141.1879,35.47361 0 0 1 8.1017095,867.62535 141.1879,35.47361 0 0 1 147.71457,831.89077 141.1879,35.47361 0 0 1 290.45808,866.83585"
       sodipodi:start="0"
       sodipodi:end="6.2683476"
       sodipodi:open="true" />
    <path
       sodipodi:type="arc"
       style="fill:#ff0000;fill-opacity:0.48414995;fill-rule:evenodd;stroke:#ff0000;stroke-width:2;stroke-linecap:butt;stroke-linejoin:round;stroke-miterlimit:4;stroke-dasharray:none;stroke-dashoffset:0;stroke-opacity:1"
       id="path2985-0-2"
       sodipodi:cx="149.28572"
       sodipodi:cy="866.4693"
       sodipodi:rx="127.14287"
       sodipodi:ry="26.760332"
       d="M 276.42859,866.4693 A 127.14287,26.760332 0 0 1 149.75735,893.22945 127.14287,26.760332 0 0 1 22.146352,866.66783 127.14287,26.760332 0 0 1 147.87087,839.71062 127.14287,26.760332 0 0 1 276.41459,866.07225"
       sodipodi:start="0"
       sodipodi:end="6.2683476"
       sodipodi:open="true" />
    <path
       style="fill:none;stroke:#000000;stroke-width:1.92506683;stroke-linecap:butt;stroke-linejoin:miter;stroke-miterlimit:4;stroke-dasharray:5.7752005, 1.92506683;stroke-dashoffset:0;stroke-opacity:1"
       d="m 149.28571,780.21932 0,269.99998"
       id="path3777"
       inkscape:connector-curvature="0"
       sodipodi:nodetypes="cc" />
    <path
       style="fill:none;stroke:#000000;stroke-width:1px;stroke-linecap:butt;stroke-linejoin:miter;stroke-opacity:1;marker-start:url(#Arrow1Lstart);marker-mid:none;marker-end:url(#Arrow1Lend)"
       d="m 8.8314111,916.28534 c 104.6428589,0 242.1428489,-0.71428 282.1428489,-0.71428"
       id="path3779"
       inkscape:connector-curvature="0"
       sodipodi:nodetypes="cc" />
    <path
       sodipodi:type="arc"
       style="fill:#ffffff;fill-opacity:0.53386458;fill-rule:evenodd;stroke:#ff0000;stroke-width:3.02713943;stroke-linecap:butt;stroke-linejoin:round;stroke-miterlimit:4;stroke-dasharray:none;stroke-dashoffset:0;stroke-opacity:1"
       id="path2985-0"
       sodipodi:cx="149.28572"
       sodipodi:cy="865.57648"
       sodipodi:rx="105.57722"
       sodipodi:ry="17.604435"
       d="M 254.86294,865.57648 A 105.57722,17.604435 0 0 1 149.67735,883.18079 105.57722,17.604435 0 0 1 43.711409,865.70708 105.57722,17.604435 0 0 1 148.11085,847.97313 105.57722,17.604435 0 0 1 254.85132,865.31528"
       sodipodi:start="0"
       sodipodi:end="6.2683476"
       sodipodi:open="true" />
    <path
       style="fill:none;stroke:#000000;stroke-width:0.86693388px;stroke-linecap:butt;stroke-linejoin:miter;stroke-opacity:1;marker-start:url(#Arrow1Lstart);marker-mid:none;marker-end:url(#Arrow1Lend)"
       d="m 302.42482,948.43545 c 1.20667,-69.17382 -0.22333,-18.34946 0.86464,-80.71798"
       id="path3779-2"
       inkscape:connector-curvature="0"
       sodipodi:nodetypes="cc" />
    <path
       style="fill:none;stroke:#000000;stroke-width:1px;stroke-linecap:butt;stroke-linejoin:miter;stroke-opacity:1;marker-start:url(#Arrow1Lstart-3);marker-mid:none;marker-end:url(#Arrow1Lend)"
       d="m 23.423497,824.63719 c 25.357151,0 214.285713,-0.71428 254.285713,-0.71428"
       id="path3779-7"
       inkscape:connector-curvature="0"
       sodipodi:nodetypes="cc" />
    <path
       style="fill:none;stroke:#000000;stroke-width:1.10985601px;stroke-linecap:butt;stroke-linejoin:miter;stroke-opacity:1;marker-start:url(#Arrow1Lstart-3);marker-mid:none;marker-end:url(#Arrow1Lend)"
       d="m 253.12762,798.41254 c -16.40617,0 -178.929552,0.30645 -208.153001,0.30645"
       id="path3779-7-9"
       inkscape:connector-curvature="0"
       sodipodi:nodetypes="cc" />
    <flowRoot
       xml:space="preserve"
       id="flowRoot5503"
       style="font-style:normal;font-variant:normal;font-weight:normal;font-stretch:normal;font-size:18px;line-height:125%;font-family:Arial;-inkscape-font-specification:Arial;letter-spacing:0px;word-spacing:0px;fill:#000000;fill-opacity:1;stroke:none"
       transform="translate(-135.92857,611.72015)"><flowRegion
         id="flowRegion5505"><rect
           id="rect5507"
           width="137.14284"
           height="26.071428"
           x="287.5"
           y="195.35715" /></flowRegion><flowPara
         id="flowPara5509"
         style="font-size:14px">Outer Irradiated</flowPara></flowRoot>    <flowRoot
       xml:space="preserve"
       id="flowRoot5503-9"
       style="font-style:normal;font-variant:normal;font-weight:normal;font-stretch:normal;font-size:18px;line-height:125%;font-family:Arial;-inkscape-font-specification:Arial;letter-spacing:0px;word-spacing:0px;fill:#000000;fill-opacity:1;stroke:none"
       transform="translate(-240.50381,582.34897)"><flowRegion
         id="flowRegion5505-8"><rect
           id="rect5507-3"
           width="137.14284"
           height="26.071428"
           x="287.5"
           y="195.35715" /></flowRegion><flowPara
         id="flowPara5509-6"
         style="font-size:14px">Inner Irradiated</flowPara></flowRoot>    <flowRoot
       xml:space="preserve"
       id="flowRoot5503-5"
       style="font-style:normal;font-variant:normal;font-weight:normal;font-stretch:normal;font-size:18px;line-height:125%;font-family:Arial;-inkscape-font-specification:Arial;letter-spacing:0px;word-spacing:0px;fill:#000000;fill-opacity:1;stroke:none"
       transform="translate(-132.53708,719.60315)"><flowRegion
         id="flowRegion5505-86"><rect
           id="rect5507-38"
           width="137.14284"
           height="26.071428"
           x="287.5"
           y="195.35715" /></flowRegion><flowPara
         id="flowPara5509-4"
         style="font-size:14px">Diameter</flowPara></flowRoot>    <flowRoot
       xml:space="preserve"
       id="flowRoot5503-5-6"
       style="font-style:normal;font-variant:normal;font-weight:normal;font-stretch:normal;font-size:18px;line-height:125%;font-family:Arial;-inkscape-font-specification:Arial;letter-spacing:0px;word-spacing:0px;fill:#000000;fill-opacity:1;stroke:none"
       transform="matrix(0,-1,1,0,110.31878,1222.6461)"><flowRegion
         id="flowRegion5505-86-5"><rect
           id="rect5507-38-1"
           width="137.14284"
           height="26.071428"
           x="287.5"
           y="195.35715" /></flowRegion><flowPara
         id="flowPara5509-4-8"
         style="font-size:14px">Thickness</flowPara></flowRoot>    <path
       sodipodi:type="arc"
       style="fill:none;stroke:#0003ff;stroke-width:2;stroke-linecap:butt;stroke-linejoin:round;stroke-miterlimit:4;stroke-dasharray:none;stroke-dashoffset:0;stroke-opacity:1"
       id="path2985-01"
       sodipodi:cx="148.28831"
       sodipodi:cy="968.74188"
       sodipodi:rx="141.1879"
       sodipodi:ry="35.47361"
       d="M 289.47621,968.74188 A 141.1879,35.47361 0 0 1 148.81204,1004.2152 141.1879,35.47361 0 0 1 7.1043035,969.00505 141.1879,35.47361 0 0 1 146.71717,933.27047 a 141.1879,35.47361 0 0 1 142.7435,34.94508"
       sodipodi:start="0"
       sodipodi:end="6.2683476"
       sodipodi:open="true" />
    <path
       sodipodi:type="arc"
       style="fill:#0009ff;fill-opacity:0.48414995;fill-rule:evenodd;stroke:#0003ff;stroke-width:0.78249717;stroke-linecap:butt;stroke-linejoin:round;stroke-miterlimit:4;stroke-dasharray:none;stroke-dashoffset:0;stroke-opacity:1"
       id="path2985-0-2-1"
       sodipodi:cx="147.7883"
       sodipodi:cy="966.77753"
       sodipodi:rx="40.927803"
       sodipodi:ry="12.725377"
       d="m 188.7161,966.77753 a 40.927803,12.725377 0 0 1 -40.77598,12.72529 40.927803,12.725377 0 0 1 -41.0785,-12.63089 40.927803,12.725377 0 0 1 40.47123,-12.81899 40.927803,12.725377 0 0 1 41.37875,12.53578"
       sodipodi:start="0"
       sodipodi:end="6.2683476"
       sodipodi:open="true" />
    <path
       sodipodi:type="arc"
       style="fill:#ffffff;fill-opacity:0.53386458;fill-rule:evenodd;stroke:#0003ff;stroke-width:0.51466006;stroke-linecap:butt;stroke-linejoin:round;stroke-miterlimit:4;stroke-dasharray:none;stroke-dashoffset:0;stroke-opacity:1"
       id="path2985-0-24"
       sodipodi:cx="148.28833"
       sodipodi:cy="966.95618"
       sodipodi:rx="13.925009"
       sodipodi:ry="3.8580956"
       d="m 162.21334,966.95618 a 13.925009,3.8580956 0 0 1 -13.87336,3.85807 13.925009,3.8580956 0 0 1 -13.97628,-3.82945 13.925009,3.8580956 0 0 1 13.76967,-3.88648 13.925009,3.8580956 0 0 1 14.07844,3.80061"
       sodipodi:start="0"
       sodipodi:end="6.2683476"
       sodipodi:open="true" />
    <flowRoot
       xml:space="preserve"
       id="flowRoot5503-2"
       style="font-style:normal;font-variant:normal;font-weight:normal;font-stretch:normal;font-size:18px;line-height:125%;font-family:Arial;-inkscape-font-specification:Arial;letter-spacing:0px;word-spacing:0px;fill:#000000;fill-opacity:1;stroke:none"
       transform="translate(-97.869772,816.60367)"><flowRegion
         id="flowRegion5505-0"><rect
           id="rect5507-8"
           width="137.14284"
           height="26.071428"
           x="287.5"
           y="195.35715" /></flowRegion><flowPara
         id="flowPara5509-49"
         style="font-size:14px">Outer Viewed</flowPara></flowRoot>    <flowRoot
       xml:space="preserve"
       id="flowRoot5503-9-7"
       style="font-style:normal;font-variant:normal;font-weight:normal;font-stretch:normal;font-size:18px;line-height:125%;font-family:Arial;-inkscape-font-specification:Arial;letter-spacing:0px;word-spacing:0px;fill:#000000;fill-opacity:1;stroke:none"
       transform="translate(-135.21621,840.08964)"><flowRegion
         id="flowRegion5505-8-4"><rect
           id="rect5507-3-5"
           width="137.14284"
           height="26.071428"
           x="287.5"
           y="195.35715" /></flowRegion><flowPara
         id="flowPara5509-6-5"
         style="font-size:14px">Inner Viewed</flowPara></flowRoot>    <path
       style="fill:none;stroke:#000000;stroke-width:1;stroke-linecap:butt;stroke-linejoin:miter;stroke-miterlimit:4;stroke-dasharray:1, 1;stroke-dashoffset:0;stroke-opacity:1;marker-start:none;marker-mid:none"
       d="m 42.866073,864.40019 c 0,-10.69342 0.712286,-52.34409 0.712286,-69.00416"
       id="path3779-2-5"
       inkscape:connector-curvature="0"
       sodipodi:nodetypes="cc" />
    <path
       style="fill:none;stroke:#000000;stroke-width:1;stroke-linecap:butt;stroke-linejoin:miter;stroke-miterlimit:4;stroke-dasharray:1, 1;stroke-dashoffset:0;stroke-opacity:1;marker-start:none;marker-mid:none;marker-end:none"
       d="m 276.42957,866.14997 c 0,-10.69342 -0.002,-35.91552 -0.002,-52.57559"
       id="path3779-2-5-3"
       inkscape:connector-curvature="0"
       sodipodi:nodetypes="cc" />
    <path
       style="fill:none;stroke:#000000;stroke-width:1;stroke-linecap:butt;stroke-linejoin:miter;stroke-miterlimit:4;stroke-dasharray:1, 1;stroke-dashoffset:0;stroke-opacity:1;marker-start:none;marker-mid:none;marker-end:none"
       d="m 253.21529,864.43569 c 0,-10.69342 0.71229,-52.34409 0.71229,-69.00416"
       id="path3779-2-5-36"
       inkscape:connector-curvature="0"
       sodipodi:nodetypes="cc" />
    <path
       style="fill:none;stroke:#000000;stroke-width:1;stroke-linecap:butt;stroke-linejoin:miter;stroke-miterlimit:4;stroke-dasharray:1, 1;stroke-dashoffset:0;stroke-opacity:1;marker-start:none;marker-mid:none;marker-end:none"
       d="m 22.858143,866.50712 c 0,-10.69342 -0.002,-35.91552 -0.002,-52.57559"
       id="path3779-2-5-3-75"
       inkscape:connector-curvature="0"
       sodipodi:nodetypes="cc" />
    <path
       style="fill:none;stroke:#000000;stroke-width:1;stroke-linecap:butt;stroke-linejoin:miter;stroke-miterlimit:4;stroke-dasharray:none;stroke-dashoffset:0;stroke-opacity:1;marker-start:none;marker-mid:none"
       d="m 7.5009996,995.43569 c 0,-10.69342 0.712286,-113.77266 0.712286,-130.43273"
       id="path3779-2-5-35"
       inkscape:connector-curvature="0"
       sodipodi:nodetypes="cc" />
    <path
       style="fill:none;stroke:#000000;stroke-width:1;stroke-linecap:butt;stroke-linejoin:miter;stroke-miterlimit:4;stroke-dasharray:none;stroke-dashoffset:0;stroke-opacity:1;marker-start:none;marker-mid:none"
       d="m 290.35814,996.14997 c 0,-10.69342 0.71229,-113.77266 0.71229,-130.43273"
       id="path3779-2-5-35-6"
       inkscape:connector-curvature="0"
       sodipodi:nodetypes="cc" />
    <path
       style="fill:none;stroke:#000000;stroke-width:0.67915308px;stroke-linecap:butt;stroke-linejoin:miter;stroke-opacity:1;marker-start:url(#Arrow1Lstart-3-2);marker-mid:none;marker-end:url(#Arrow1Lend-12)"
       d="m 108.56442,1014.4518 c 7.9077,0 66.82562,1.0565 79.29973,1.0565"
       id="path3779-7-0"
       inkscape:connector-curvature="0"
       sodipodi:nodetypes="cc" />
    <path
       style="fill:none;stroke:#000000;stroke-width:0.56744587px;stroke-linecap:butt;stroke-linejoin:miter;stroke-opacity:1;marker-start:url(#Arrow1Lstart-3-2);marker-mid:none;marker-end:url(#Arrow1Lend-12)"
       d="m 161.10025,1031.007 c -2.10125,0 -22.91671,-0.6253 -26.65955,-0.6253"
       id="path3779-7-9-9"
       inkscape:connector-curvature="0"
       sodipodi:nodetypes="cc" />
    <path
       style="fill:none;stroke:#000000;stroke-width:1;stroke-linecap:butt;stroke-linejoin:miter;stroke-miterlimit:4;stroke-dasharray:1, 1;stroke-dashoffset:0;stroke-opacity:1;marker-start:none;marker-mid:none"
       d="m 133.72829,964.85997 c 0,10.6934 0.71229,52.34403 0.71229,69.00413"
       id="path3779-2-5-360"
       inkscape:connector-curvature="0"
       sodipodi:nodetypes="cc" />
    <path
       style="fill:none;stroke:#000000;stroke-width:1;stroke-linecap:butt;stroke-linejoin:miter;stroke-miterlimit:4;stroke-dasharray:1, 1;stroke-dashoffset:0;stroke-opacity:1;marker-start:none;marker-mid:none;marker-end:none"
       d="m 187.29179,964.53867 c 0,10.6935 -0.002,35.91563 -0.002,52.57563"
       id="path3779-2-5-3-6"
       inkscape:connector-curvature="0"
       sodipodi:nodetypes="cc" />
    <path
       style="fill:none;stroke:#000000;stroke-width:1;stroke-linecap:butt;stroke-linejoin:miter;stroke-miterlimit:4;stroke-dasharray:1, 1;stroke-dashoffset:0;stroke-opacity:1;marker-start:none;marker-mid:none;marker-end:none"
       d="m 161.93465,965.53873 c 0,10.6934 0.71229,52.34407 0.71229,69.00407"
       id="path3779-2-5-36-2"
       inkscape:connector-curvature="0"
       sodipodi:nodetypes="cc" />
    <path
       style="fill:none;stroke:#000000;stroke-width:1;stroke-linecap:butt;stroke-linejoin:miter;stroke-miterlimit:4;stroke-dasharray:1, 1;stroke-dashoffset:0;stroke-opacity:1;marker-start:none;marker-mid:none;marker-end:none"
       d="m 108.00608,965.61014 c 0,10.6934 -0.002,35.91546 -0.002,52.57556"
       id="path3779-2-5-3-75-6"
       inkscape:connector-curvature="0"
       sodipodi:nodetypes="cc" />
  </g>
</svg>
